<?xml version="1.0" encoding="utf-8"?>
<!-- Generator: Adobe Illustrator 19.0.0, SVG Export Plug-In . SVG Version: 6.00 Build 0)  -->
<svg version="1.2" baseProfile="tiny" id="Layer_1" xmlns="http://www.w3.org/2000/svg" xmlns:xlink="http://www.w3.org/1999/xlink"
	 width="4.1397in" height="3.6289in" viewBox="0 0 298.1 261.3" xml:space="preserve">
<g id="board">
	<path id="XMLID_16_" fill="#69BD45" d="M297.6,127.6c-0.3-1-0.7-2-1.2-3L282.2,100c-3-5.2-9-7.9-14.9-6.8
		c-8.4,1.6-17.1-0.8-23.6-6.3c-11.9-10.2-13.3-28.1-3.1-40c3.9-4.6,4.5-11.1,1.5-16.3L227.9,6c-0.5-0.9-1.2-1.8-2-2.6
		c-0.7-0.8-1.6-1.4-2.4-1.9s-1.8-0.9-2.8-1.2S218.6,0,217.5,0H80.6c-1.1,0-2.2,0.1-3.2,0.4s-2,0.7-2.8,1.2s-1.7,1.1-2.4,1.9
		c-0.7,0.8-1.4,1.6-2,2.6L55.9,30.6c-3,5.2-2.4,11.7,1.5,16.3c5.6,6.5,7.9,15.2,6.3,23.6c-2.9,15.4-17.7,25.6-33,22.7
		c-5.9-1.1-11.9,1.6-14.9,6.8L1.7,124.6c-0.5,0.9-1,2-1.2,3c-0.3,1-0.4,2-0.4,3.1s0.1,2,0.4,3.1c0.3,1,0.7,2,1.2,3l68.5,118.6
		c0.5,0.9,1.2,1.8,2,2.6c0.7,0.8,1.6,1.4,2.4,1.9s1.8,0.9,2.8,1.2c1,0.3,2.1,0.4,3.2,0.4h28.4c6,0,11.4-3.8,13.4-9.4
		c2.9-8.1,9.2-14.4,17.3-17.3c14.8-5.2,31,2.5,36.2,17.3c2,5.7,7.4,9.4,13.4,9.4h28.4c1.1,0,2.2-0.1,3.2-0.4c1-0.3,2-0.7,2.8-1.2
		s1.7-1.1,2.4-1.9c0.7-0.8,1.4-1.6,2-2.6l68.5-118.6c0.5-0.9,1-2,1.2-3c0.3-1,0.4-2,0.4-3.1S297.9,128.6,297.6,127.6z M149,163.2
		c-18,0-32.6-14.6-32.6-32.6S131,98,149,98s32.6,14.6,32.6,32.6S167,163.2,149,163.2z"/>
</g>
<g id="silkscreen">
</g>
</svg>
