<?xml version="1.0" encoding="utf-8"?>
<!-- Generator: Adobe Illustrator 19.0.0, SVG Export Plug-In . SVG Version: 6.00 Build 0)  -->
<svg version="1.2" baseProfile="tiny" id="Layer_1" xmlns="http://www.w3.org/2000/svg" xmlns:xlink="http://www.w3.org/1999/xlink"
	 width="3.053in" height="1.3837in" viewBox="0 0 219.8 99.6" xml:space="preserve">
<g id="board">
	<path id="XMLID_241_" fill="#69BD45" d="M219.8,28.3c0-1.5-0.3-3-0.8-4.4c0,0,0,0,0-0.1c0.5-1.4,0.8-2.7,0.8-4.1
		c0-2.4-0.9-5.8-5.1-9c-0.1-0.1-0.2-0.2-0.3-0.2c-1.5-1.9-3.8-3.2-6.4-3.2c-0.7,0-1.4,0.1-2.2,0.3c-2-0.7-3.7-1-5.3-1
		c-3.1,0-5.9,0.8-8.4,2.4c0,0-0.1,0.1-0.1,0.1c-0.2,0.1-0.4,0.3-0.6,0.5c-2-1.5-5-2.7-9.3-2.7c-2.1,0-4.4,0.2-6.6,0.7
		c-0.3-1.2-0.8-2.3-1.6-3.3c-1.5-1.9-3.8-3-6.2-3c0,0-0.6,0-2.2-0.3c-1.7-0.3-3-0.4-4.1-0.5c-0.7-0.2-1.4-0.3-2.2-0.3
		c-1.7,0-3.4,0.5-4.8,1.6c-0.7,0.5-1.3,1.1-1.8,1.8c-1.5-1.9-3.8-3-6.3-3c-0.4,0-0.7,0-1.1,0.1c-0.5,0.1-1,0.2-1.6,0.3
		c-1.3-0.7-2.9-1.2-4.6-1.2c-0.1,0-0.3,0-0.5,0c-0.4,0-0.9,0.1-1.3,0.2c-0.5,0.1-0.9,0.2-1.3,0.3c-0.3,0-0.7-0.1-1-0.1
		c-3.1,0-6,1.8-7.4,4.8L127,6.1c-0.3,0.6-0.4,1.2-0.6,1.7c-0.4,0.1-0.9,0.2-1.3,0.3c-1.6,0.4-2.4,0.5-2.7,0.5
		c-0.6,0.1-1.9,0.1-4.6,0.1c-0.3,0-0.7,0-1,0c0,0-2.2,0-3.4,0c-1.4-1-3.1-1.6-4.8-1.6c-0.4,0-0.7,0-1.1,0.1
		c-1.1,0.1-2.5,0.4-4.5,0.9c-1.6,0.4-2.4,0.5-2.7,0.5c-0.6,0.1-1.9,0.1-4.6,0.1c-0.3,0-0.7,0-1,0c0,0-2.2,0-3.4,0
		c-1.4-1-3.1-1.6-4.8-1.6c-0.4,0-0.7,0-1.1,0.1c-1.1,0.1-2.5,0.4-4.5,0.9c-1.6,0.4-2.4,0.5-2.7,0.5c-0.6,0.1-1.9,0.1-4.6,0.1
		c-0.3,0-0.7,0-1,0c0,0-2.6,0-3.7,0c-1.5-1.5-3.5-2.4-5.8-2.4c-0.2,0-0.4,0-0.5,0c-4.1,0.3-7.1,0.4-9.1,0.5c-1,0-2,0.3-2.9,0.6
		c-0.2,0-0.4,0-0.6,0c-0.4,0-1.5,0.1-3.8,0.2c-0.1,0-0.3,0-0.4,0c-0.8-1.4-1.9-2.7-3.2-3.8C39.6,1.6,36,0.4,32.1,0.4
		c-1.9,0-4.3,0.3-7.5,0.8c-3.3,0.5-4.4,0.6-4.5,0.6c-0.2,0-0.5,0-0.9,0c-0.8,0-1.4-0.1-1.9-0.1C9.3,1.7,6.7,6.4,6,8.4
		c-0.9,2.4-0.6,5.2,0.9,7.3c0.8,1.2,1.9,2.1,3.2,2.8C10,19,9.9,19.6,9.9,20.1c0,0.9,0.1,2,0.3,3.5c0.1,0.5,0.1,0.8,0.1,1
		c0,0.2-0.1,0.7-0.3,1.6c-0.5,2.1-0.7,3.8-0.7,5.2c0,0.7,0,1.3,0.1,2c-0.2,1.8,0.2,3.7,1.2,5.3c0.6,1,1.4,1.8,2.4,2.4
		C5.2,46.9,0,56.3,0,67c0,18,14.8,32.7,33.1,32.7c12.2,0,22.9-6.5,28.6-16.2c0.1,0.4,0.3,0.7,0.4,1.1c1.1,2.3,3.3,4,5.8,4.4
		c1.5,2,3.8,3.3,6.5,3.3c2.7,0,6.8,0.2,12.2,0.7c6,0.5,10.4,0.7,13.4,0.7c4.6,0,8.1-1.3,10.5-3.9c0.1-0.1,0.1-0.1,0.2-0.2
		c0.5-0.6,0.9-1.2,1.3-2c1.2,0.9,2.6,1.6,4.1,2.1c0.1,0,0.4,0.2,1,0.6c1.6,1.2,3,2,4.4,2.5c0.1,0,0.2,0.1,0.3,0.1
		c2.2,0.8,4.8,1.1,7.9,1.1c6.3,0,11.5-1.5,15.6-4.5c0.7,0.6,1.5,1.1,2.4,1.4c5.2,1.9,10,2.9,14.4,2.9c1,0,2.8,0,5.7-0.1
		c1.4,0,2.6-0.1,3.7-0.1c0.5,0,0.9,0,1.3,0c0.1,0,0.1,0,0.2,0c2.6,0,5-1.3,6.4-3.2c1.9,1.7,5,3.2,9.7,3.2c2.8,0,5.3-0.6,7.6-1.7
		l8.1-4.1c0.2-0.1,0.3-0.2,0.4-0.2c4.2-2.5,7.4-5.6,9.5-9.2c1-1.8,1.7-4,2-6.7c0.2-1.3,0.3-2,0.4-2.3c0.4-0.8,0.7-1.6,1-2.4
		c0,0,0,0,0-0.1c0.9-2.2,1.3-4.1,1.3-6c0-2.5-0.9-5.2-2.9-8.8c-0.1-0.3-0.3-1.1-0.6-2.7c0,0,0-0.1,0-0.1c-1-5.2-4-8-6.3-9.5
		c0,0,0,0-0.1,0c0.8-0.3,1.6-0.6,2.4-0.9C219,35.8,219.8,30.4,219.8,28.3z M33.1,91.4C19.6,91.4,8.7,80.4,8.7,67
		c0-13.5,10.9-24.4,24.4-24.4c13.5,0,24.4,10.9,24.4,24.4C57.6,80.4,46.6,91.4,33.1,91.4z M145.2,41.4c-0.1-0.1-0.1-0.1-0.2-0.2
		c0.1,0,0.3,0,0.4-0.1C145.4,41.2,145.3,41.3,145.2,41.4z"/>
</g>
<g id="silkscreen">
	<g id="XMLID_16_">
		<path id="XMLID_17_" fill="#FFFFFF" d="M42.3,24.5c0,2.1-0.6,3.9-1.9,5.4c-1.3,1.6-3,2.5-5,2.5c-1.4,0-3.4,0.2-6.1,0.5
			c-2.7,0.3-4.8,0.5-6.2,0.5c-0.5,0-1.3,0.2-2.3,0.5c-1,0.3-1.8,0.5-2.3,0.5c-0.1,0-0.3,0-0.5-0.1c-0.3-0.1-0.4-0.1-0.5-0.1
			c0.1-0.2,0.3-0.4,0.6-0.5c0.3-0.1,0.6-0.3,0.8-0.4l-1.3-0.1c-0.2-0.7-0.2-1.3-0.2-1.9c0-0.7,0.2-1.9,0.5-3.3s0.5-2.6,0.5-3.4
			c0-0.5-0.1-1.2-0.2-2.2c-0.2-1-0.2-1.7-0.2-2.2c0-0.6,0.2-1.4,0.6-2.4c0.4-1,0.6-1.8,0.6-2.3c0-0.7-0.5-1.6-1.4-2.7L17.6,13
			c-0.3,0-0.7-0.1-1.3-0.3l-0.1-0.5l0.7,0l0.7,0c0-0.5-0.4-0.8-1.2-1c-0.6,0-1.2,0-1.8,0l-1.1,0c0.4-1,1.6-1.4,3.7-1.4
			c0.4,0,0.9,0,1.5,0c0.6,0,1.1,0,1.2,0c1.2,0,3.1-0.2,5.9-0.7c2.7-0.5,4.8-0.7,6.2-0.7c2.1,0,3.8,0.6,5.1,1.7
			c1.4,1.2,2.2,2.8,2.2,4.9c0,0.8-0.3,1.5-1,2.1c-0.3,1.5-0.8,2.4-1.7,2.5c0,0.9,0.5,1.6,1.5,2c0.9,0.3,1.8,0.6,2.7,0.9
			C41.9,22.9,42.3,23.6,42.3,24.5z M19.4,10.3c-0.6,0.3-1.2,0.4-1.8,0.4c-0.2,0-0.5,0-0.8-0.1c-0.4,0-0.6-0.1-0.8-0.1
			c-0.3,0-0.6,0-0.9,0.1l0.2,0c0.5,0,1.2,0.2,2,0.5c0.6,0.3,1.3,0.5,2,0.8c-0.2-0.2-0.3-0.4-0.3-0.6c0-0.1,0.1-0.3,0.2-0.5
			C19.3,10.7,19.4,10.5,19.4,10.3z M21,30.4l0-0.4l-1.3,0.1c0-1.1,0.1-2.6,0.2-4.7s0.2-3.6,0.2-4.7c0-1.8-0.2-3.5-0.5-5
			c0,1.4-0.2,4.4-0.5,8.8c-0.3,5-0.6,7.7-0.8,8.2c0.2,0,0.6,0,1.1,0.1c0.5,0,0.8,0.1,1.1,0.1h0.4l0-0.7l-1.1,0.1l-0.2-0.7
			C20.6,31.4,21,31,21,30.4z M21.2,33.3c0.2,0-0.1,0-0.9,0c-0.6,0-1.1,0.3-1.5,0.8C19.3,33.8,20.1,33.5,21.2,33.3z M21.3,16.3
			c0-1.1-0.5-2-1.5-2.9c0.6,1.7,0.9,3.7,1,5.7C21.1,17.6,21.3,16.6,21.3,16.3z M38.1,15.4c0-1.6-1.1-3.1-3.2-4.4
			c-1.9-1.2-3.7-1.9-5.4-1.9c-0.5,0-1.2,0.1-2.2,0.3c-1,0.2-1.7,0.3-2.2,0.3c-3.5,0.1-5.3,0.6-5.3,1.5c0,0.1,0,0.2,0.1,0.4
			S20,11.9,20,12c0.7-0.3,1.7-0.5,2.9-0.6c0-0.4,0.3-0.6,1-0.6c0.1-0.1,0.2-0.2,0.4-0.2c0.1,0,0.3,0,0.6,0c0.3,0,0.4,0.1,0.5,0.1
			c0.4,0,0.9-0.1,1.7-0.2c0.8-0.2,1.4-0.2,1.8-0.2c0.5,0,1.1,0.1,1.8,0.4c0.8,0.3,1.4,0.4,1.9,0.4c1.7,0,3.2,1.1,4.6,3.2
			c0.2,0.3,0.3,0.8,0.3,1.4c0,0.6,0.1,1.1,0.3,1.4C38,16.4,38.1,15.9,38.1,15.4z M25.7,31.5c-0.2-0.1-0.5-0.1-0.7-0.1
			c0,0-0.5,0.1-1.5,0.3c-0.4,0.1-0.8,0.1-1.2,0.2c-0.5,0.1-0.8,0.4-0.9,0.7c0.6-0.1,1.3-0.2,2.1-0.4C24.3,31.9,25,31.7,25.7,31.5z
			 M24.3,30.6h-0.4c-0.7,0-1.3-0.1-1.6-0.2c0,0-0.1-0.1-0.3-0.2c-0.2-0.1-0.3-0.1-0.3-0.1c0,0.2,0.1,0.5,0.1,0.9h0.4
			C23,31,23.8,30.9,24.3,30.6z M31.4,32.1c-0.2,0-0.6,0.1-1.1,0.1c-0.4,0-0.9,0-1.6-0.1S27.5,32,27.1,32c-0.7,0-1.6,0.2-2.7,0.5
			c-1.2,0.4-2.1,0.6-2.6,0.6c0.7,0.1,1.5,0.2,2.2,0.2c1,0,2.2-0.1,3.7-0.4C28.9,32.6,30.1,32.3,31.4,32.1z M26.3,19.1
			C26,19,25.5,18.9,25,18.9c-0.7,0-1.3,0.1-1.9,0.3c0.6,0.1,1.1,0.1,1.6,0.1C25.5,19.3,26,19.2,26.3,19.1z M28.6,8.9
			c-1,0.2-2.4,0.4-4.4,0.8c1,0,1.8-0.1,2.3-0.2C27.4,9.3,28.1,9.1,28.6,8.9z M33.5,16.5c0-0.3-0.1-0.7-0.3-1.1
			c-0.2-0.5-0.4-0.8-0.6-0.9c-0.2-0.2-0.9-0.3-2.2-0.5c-1.1-0.2-1.9-0.2-2.3-0.2c-0.5,0-1.7,0.1-3.6,0.2c0.7,1.2,1.1,2.7,1.2,4.6
			c1.1,0,1.9,0.1,2.5,0.1C31.8,18.6,33.5,17.9,33.5,16.5z M29.6,11c-1.1-0.1-1.8-0.2-2-0.2c-1,0-1.9,0.2-2.8,0.6h0.3
			C26.9,11.4,28.4,11.2,29.6,11z M33.2,24.2c0-0.6-0.5-1.1-1.6-1.5c-0.8-0.2-1.7-0.4-2.5-0.6c-1.2-0.3-2.1-0.5-2.8-0.5
			c-0.3,0-0.6,0-0.7,0c-0.1,1.2-0.1,2-0.1,2.6c0,1,0.1,2,0.3,3.1c0.3-0.1,0.7-0.2,1.1-0.2c0.2,0,0.6,0,1,0c0.5,0,0.9,0,1.1,0
			c1.1,0,2-0.3,2.8-0.8C32.7,26,33.2,25.2,33.2,24.2z M31.3,13.6c-0.9-0.4-1.8-0.6-2.9-0.6c-0.9,0-1.9,0.1-2.8,0.4
			c0.8-0.1,1.4-0.1,1.9-0.1l2.3,0.3C30,13.7,30.5,13.7,31.3,13.6z M35,26.4v-0.2c-1.7,2.3-4.2,3.4-7.4,3.4c-0.4,0-1,0-1.8-0.1
			c1,0.5,1.9,0.7,2.8,0.7c1,0,2.2-0.4,3.8-1.2C34.2,28.1,35,27.3,35,26.4z M33.8,18.5c-0.9,0.4-2.1,0.7-3.7,0.7
			c-1.3,0-2.6,0.1-3.8,0.1c0,0,0.7,0.1,2,0.3c0.8,0.1,1.4,0.2,2,0.2C31.9,19.8,33,19.4,33.8,18.5z M35.3,29.7
			c-1.8,0.8-4.4,1.3-7.9,1.7c0.5,0.1,1.1,0.2,1.7,0.2C31.6,31.6,33.7,31,35.3,29.7z M38.1,12.6c-0.6-1.4-1.3-2.4-2.2-2.9
			c-0.9-0.6-2.1-0.9-3.6-0.9c-0.5,0-0.8,0-1.1,0c1.6,0.2,2.9,0.5,3.9,1C36.4,10.5,37.4,11.4,38.1,12.6z M41.5,26.9
			c0-0.7-0.2-1.5-0.6-2.4c-0.4-0.8-0.9-1.4-1.6-1.8c-0.1,0.1-0.1,0.3-0.1,0.4c0,0.3,0.2,0.7,0.5,1.2c0.3,0.5,0.5,1,0.5,1.3
			c0,1.2-1.1,2.5-3.2,3.9C35,30.9,33.4,31.7,32,32c0.9-0.1,1.6-0.2,2.3-0.2c0.9,0,1.8,0.1,2.7,0.3c0.3-1.1,0.8-1.8,1.6-2.3
			c0.6-0.3,1.3-0.5,2-0.8C41.2,28.6,41.5,27.9,41.5,26.9z M38.6,23.8c-0.2-0.9-0.9-1.6-2-2.1c-1-0.4-2-0.7-3-0.7c-0.3,0-0.6,0-0.7,0
			c1.3,0.2,2.3,0.5,3.2,0.9C36.7,22.3,37.6,22.9,38.6,23.8z M37.9,17.6c-0.2,0.1-0.4,0.4-0.7,0.7c-0.3,0.4-0.6,0.6-0.7,0.7L37,19
			c0.2-0.2,0.4-0.4,0.6-0.7C37.8,18.1,37.9,17.9,37.9,17.6z"/>
		<path id="XMLID_40_" fill="#FFFFFF" d="M66.9,29c-0.5,0.5-1.2,0.8-2.1,0.9c-1.3,0.1-2,0.2-2.2,0.3c-0.8,0.3-1.4,0.9-1.9,2
			c-0.1,0-0.3-0.1-0.5-0.4c-0.2-0.2-0.4-0.4-0.6-0.4c0-0.3,0-0.7-0.1-1.2c-1,0-1.7,0-1.9-0.1c-0.6,0.5-1.3,1.1-1.9,1.6
			c-0.7,0.6-1.4,0.9-2.2,0.9c-1.9,0-3.7-0.5-5.4-1.6c-1.9-1.2-2.8-2.8-2.8-4.6c0-0.5,0.1-1.2,0.4-2.2c0.2-1,0.4-1.7,0.4-2.2
			c0-0.6-0.2-1.5-0.7-2.5c-0.5-1.2-1-1.8-1.5-1.8l0.5-0.3l0-0.4l-1,0.1c-0.3,0-0.9,0-1.8-0.2l0.1-0.8c1-0.1,2.5-0.2,4.5-0.2
			c2,0,3.5-0.1,4.5-0.2c0.1,0.4,0.4,1,0.7,1.8c0.4,0.1,0.6,0.3,0.5,0.6c-1,4-1.5,6.6-1.5,7.7c0,0.5,0.2,0.9,0.5,1.3
			c0.3,0.4,0.7,0.6,1.2,0.6c2.4,0,4-0.8,5-2.3c0.8-1.2,1.1-3.1,1.1-5.6c0-1-0.4-1.7-1.2-2.2c-0.8-0.4-1.6-0.7-2.5-1.1
			c0.5,0,1.1-0.2,2-0.4c-0.8-0.4-1.7-0.5-2.7-0.5L53.5,15c2.1-0.1,5.2-0.3,9.3-0.5c0.1,0.6,0.2,1.3,0.2,2.1c0,1-0.1,2.4-0.2,4.4
			c-0.2,2-0.2,3.4-0.2,4.4c0,1.3,0.8,2.1,2.3,2.4L63.9,28l0.2,0.4c0.6,0,1.5-0.1,2.6-0.3L66.9,29z M46.7,16.2
			c-0.5,0-1.2,0.1-2.2,0.1c-1,0-1.7,0-2.2,0.1c0.1,0,0.6,0.1,1.5,0.3c0.7,0.1,1.1,0.3,1.2,0.6C46,17.2,46.6,16.8,46.7,16.2z
			 M46.8,19.7c0-0.7-0.4-1.2-1.1-1.7c0.2,0.7,0.5,1.9,0.7,3.4C46.7,20.5,46.8,19.9,46.8,19.7z M46.5,28.3c0-0.8-0.1-1.4-0.3-1.9
			C46.1,26.7,46,27,46,27.3c0,0.4,0.2,1,0.5,1.8C46.5,28.9,46.5,28.7,46.5,28.3z M54.3,30.1c-0.6,0.2-1.3,0.3-2,0.3
			c-1.2,0-2.4-0.3-3.4-1c-1.2-0.7-1.9-1.7-1.9-2.8c0-0.4,0.1-0.9,0.3-1.6c0.2-0.7,0.3-1.2,0.3-1.6c0-0.5-0.2-1.1-0.5-1.6
			c-0.7,1.1-1,2-1,2.9c0,0.5,0.1,1.2,0.4,2.1c0.4,1.1,0.6,1.8,0.7,2.1c0.3,1.4,1.5,2.1,3.7,2.1C52.2,30.9,53.3,30.6,54.3,30.1z
			 M48.9,16.8c0,0,0-0.1-0.1-0.2c0-0.1-0.1-0.1-0.1-0.2c0,0-0.1,0-0.2,0c-0.1,0-0.1,0-0.2,0c-0.2,0-0.5,0-0.8-0.1
			c0,0.1,0.1,0.3,0.1,0.6c0.1,0,0.4,0,0.7-0.1C48.5,16.8,48.7,16.8,48.9,16.8z M50.6,17.4c-0.1-0.2-0.2-0.5-0.2-0.7
			c-0.1-0.2-0.2-0.4-0.5-0.6c-0.1,0.2-0.2,0.4-0.3,0.7C49.8,16.8,50.2,17,50.6,17.4z M57,29.1c-1.8,1.6-4.3,2.3-7.4,2.2
			c0.4,0.1,0.9,0.2,1.3,0.3c0.4,0.1,0.8,0.3,1.1,0.5c0.2-0.3,0.8-0.5,1.5-0.5c0.9,0,1.5-0.2,1.9-0.3C56.2,30.9,56.7,30.2,57,29.1z
			 M51,19.8c-0.3,0.3-0.6,0.7-0.9,1.2c0,0,0,0.1,0,0.2c0,0.1,0,0.2,0,0.2c0,0-0.1,1-0.2,2.9c0.4-0.6,0.6-1.2,0.7-1.7
			c0-0.2,0.1-0.9,0.1-1.9C50.7,20.5,50.8,20.2,51,19.8z M59,15.1c-0.5,0-1.2,0.1-2.2,0.1h-0.5c-0.5,0-1,0-1.4,0.1h0.2
			c0.4,0,1,0.2,1.6,0.5c0.7,0.3,1.1,0.5,1.4,0.5c0.3,0,0.5-0.1,0.7-0.4C58.9,15.7,59,15.4,59,15.1z M58.9,25v-0.2
			c-0.2,0.2-0.4,0.6-0.6,0.9c-0.7,1-1.5,1.8-2.4,2.2C57.9,27.7,58.9,26.7,58.9,25z M59.5,29.1c0-0.1-0.1-0.3-0.2-0.4
			c-0.2,0.6-0.6,1-1.2,1.2C59.1,29.7,59.5,29.5,59.5,29.1z M62.4,20.3c0-1.3-0.6-3.1-1.7-5.2l-0.8,0.1l0,0.2c0,0.4,0.2,0.7,0.5,1
			c0.3,0.3,0.6,0.5,1,0.4c0.4,1.1,0.5,2,0.5,2.8c0,0.6-0.2,1.4-0.5,2.4c-0.3,1-0.5,1.8-0.5,2.4c0,0.5,0.1,1,0.3,1.5
			c0-0.6,0.2-1.6,0.6-2.8C62.2,21.9,62.4,21,62.4,20.3z M65.8,28.7c-0.2,0-0.5,0-0.9,0c-0.7,0-1.4-0.1-2-0.4
			c-0.1,0.1-0.5,0.5-1.2,1.1c-0.4,0.4-0.9,0.7-1.5,0.8l0.2,0.5C62.4,29.8,64.2,29.1,65.8,28.7z M62.5,28.1c-0.6-1-0.8-2.3-0.8-4
			c0,0.8-0.2,2-0.4,3.7h0.2C61.9,27.8,62.2,27.9,62.5,28.1z M62.4,14.9l-1,0.1c0.2,0.2,0.4,0.6,0.5,1c0.2,0.6,0.3,1,0.4,1.1
			c0-0.1,0-0.4,0-0.7C62.3,16,62.3,15.5,62.4,14.9z"/>
		<path id="XMLID_57_" fill="#FFFFFF" d="M87.9,29.8c0,0.8-0.1,1.7-0.2,2.8c-1,0.1-2.2,0.2-3.7,0.2c-2.6-0.1-3.8-0.1-3.7-0.1
			c-1.1,0-2.7,0.2-4.9,0.6c-2.2,0.4-3.9,0.6-5,0.6l-1,0l0.2-0.7c-0.3,0-1,0-2,0.1l0-0.5C67.6,31.5,68,30.2,69,29
			c0.6-0.7,1.6-1.6,3.1-2.8c0.6-0.4,1.6-1.4,3.2-3c1.3-1.2,2.4-2.2,3.4-2.8c-0.8-0.2-1.6-0.2-2.3-0.2c-0.4,0-1.8,0.1-4.2,0.4
			l-0.1-0.5L71.6,20l0.2,1.5l-0.7,0.1c0-0.2-0.2-0.6-0.4-1l-0.6,0.9c-0.6-0.1-0.9-0.3-1.1-0.7C69,20.7,69,20.3,69,19.6
			c0-0.2-0.2-0.6-0.5-1.1c-0.3-0.6-0.5-1-0.5-1.3c0-0.1,0-0.2,0.1-0.3l4.1,0c3,0,5.3,0,6.6-0.2c0.9-0.1,2.1-0.3,3.7-0.7
			c1.7-0.4,2.9-0.6,3.7-0.7c0.1,0.4,0.2,0.7,0.2,1.1c0,0.7-1.2,2.6-3.6,5.6c-2.3,2.9-3.9,4.6-4.8,5.1c-0.8,0.5-1.3,1.1-1.4,1.6
			c0.4,0,1,0.1,1.9,0.1c0.8,0.1,1.4,0.1,1.9,0.1c0.9,0,1.6-0.1,2.3-0.3c0,0.1-0.1,0.3-0.2,0.4s-0.2,0.3-0.2,0.4
			c0.7-0.1,1.4-0.4,1.8-0.9c0.2-0.2,0.6-0.8,1.1-1.6l0.6-0.1c0,0.4,0.2,0.7,0.4,1c0.2-0.5,0.2-0.8,0.2-1c0.5-0.2,0.9-0.3,1.2-0.2
			C87.8,27.5,87.9,28.6,87.9,29.8z M70.4,30.8L69.7,31c0-0.4,0-0.7-0.2-1c-0.2,0.5-0.4,1-0.6,1.4c-0.2,0.5-0.5,0.9-0.8,1.3
			C69.5,32.6,70.2,32,70.4,30.8z M70.1,19.6c0-0.2,0-0.6-0.1-1.1c-0.1-0.5-0.1-0.9-0.1-1.1c-0.5,0.2-0.7,0.7-0.7,1.4
			c0,0.8,0.2,1.5,0.7,2.2C70,20.4,70.1,20,70.1,19.6z M71,28.5c-0.6,0.6-1,1.1-1,1.4c0,0,0,0.1,0.1,0.2C70.4,29.8,70.7,29.2,71,28.5
			z M77.4,22.8c-1,0.7-2,1.4-2.8,2.1c-0.8,0.6-1.6,1.1-2.4,1.6c-1,0.7-1.7,1.4-1.9,2c0.7-0.8,2-1.7,3.8-2.6
			C75.6,25.1,76.7,24.1,77.4,22.8z M78.7,32.4c-0.9-0.1-1.9-0.1-2.8-0.1c-2.7,0-4.5,0.3-5.6,0.9C72.2,33.2,75,32.9,78.7,32.4z
			 M74.9,31.2c-0.9,0.1-2.1,0.3-3.6,0.6c0-0.1-0.2-0.2-0.3-0.3c0,0.4-0.2,0.7-0.4,0.9C71.8,32.3,73.3,31.9,74.9,31.2z M84.3,16.5
			c-0.5,0-0.9-0.1-1.2-0.1c-0.7,0-2,0.2-4.1,0.6c-2.4,0.5-5.2,0.7-8.2,0.7c0,0.3,0,0.5-0.1,0.8c0.5-0.3,1.1-0.4,1.9-0.5
			c0.7,0,1.3,0,2-0.1c0.8-0.1,1.9-0.2,3.1-0.4c1.8-0.3,2.9-0.5,3.1-0.5c0.2,0.4,0.6,0.6,1.1,0.6c0.2,0,0.6,0,1.1-0.1
			c0.5-0.1,0.9-0.1,1.1-0.1C84.2,17,84.3,16.7,84.3,16.5z M79.2,18c-0.6-0.1-1.2-0.2-1.6-0.2c-0.6,0-1.3,0.1-2.1,0.3
			c-1.1,0.3-1.8,0.4-2.1,0.5C75.9,18.5,77.9,18.2,79.2,18z M79.2,25.4c-2,1.1-3.2,2.3-3.6,3.6c0.2-0.2,0.5-0.4,0.9-0.8
			c0.2-0.3,0.5-0.8,1-1.3c0.1-0.2,0.3-0.3,0.4-0.4c0.3-0.1,0.4-0.2,0.5-0.3C78.5,26,78.8,25.7,79.2,25.4z M82.8,30.3
			c-1.2,0-2.1-0.1-2.7-0.1c-2.5,0-4.1,0.2-4.5,0.6c0.4-0.1,1.5-0.2,3.4-0.2C80.1,30.5,81.4,30.4,82.8,30.3z M80.3,20.3l-0.5-0.5
			c-0.1,0.3-0.3,0.8-0.8,1.4c-0.4,0.6-0.7,1-0.7,1C79,21.6,79.6,21,80.3,20.3z M87.4,30c0-0.6-0.1-1.4-0.3-2.6
			c-0.1,0.4-0.2,0.9-0.5,1.7c-0.3,0.8-0.4,1.4-0.5,1.8c-0.2,0-1.2,0.3-3.1,0.8c-0.9,0.1-2.2,0.3-3.9,0.7c1,0,2.4-0.1,4.1-0.3
			c1.9-0.2,3.3-0.4,4.1-0.4C87.4,31.1,87.4,30.5,87.4,30z M80.7,17.7c-0.1,0.1-0.6,0.1-1.2,0.2c0.7,0.1,1,0.1,0.9,0.1
			C80.6,18.1,80.7,18,80.7,17.7z M85.5,30.1c-0.6,0.4-1.9,0.8-3.7,1.1c0.4,0,0.9-0.1,1.7-0.2c0.8-0.1,1.3-0.2,1.7-0.2
			C85.2,30.6,85.3,30.4,85.5,30.1z M85.3,16.6L85.3,16.6c-0.7,0.9-1.2,1.7-1.5,2.1c-0.5,0.8-0.9,1.6-1.1,2.4c0.5-0.7,1-1.4,1.6-2.1
			C85,18,85.3,17.2,85.3,16.6z"/>
		<path id="XMLID_74_" fill="#FFFFFF" d="M110.1,29.8c0,0.8-0.1,1.7-0.2,2.8c-1,0.1-2.2,0.2-3.7,0.2c-2.6-0.1-3.8-0.1-3.7-0.1
			c-1.1,0-2.7,0.2-4.9,0.6c-2.2,0.4-3.9,0.6-5,0.6l-1,0l0.2-0.7c-0.3,0-1,0-2,0.1l0-0.5c-0.1-1.3,0.4-2.5,1.4-3.8
			c0.6-0.7,1.6-1.6,3.1-2.8c0.6-0.4,1.6-1.4,3.2-3c1.3-1.2,2.4-2.2,3.4-2.8c-0.8-0.2-1.6-0.2-2.3-0.2c-0.4,0-1.8,0.1-4.2,0.4
			l-0.1-0.5L93.8,20l0.2,1.5l-0.7,0.1c0-0.2-0.2-0.6-0.4-1l-0.6,0.9c-0.6-0.1-0.9-0.3-1.1-0.7c-0.1-0.2-0.1-0.6-0.1-1.3
			c0-0.2-0.2-0.6-0.5-1.1c-0.3-0.6-0.5-1-0.5-1.3c0-0.1,0-0.2,0.1-0.3l4.1,0c3,0,5.3,0,6.6-0.2c0.9-0.1,2.1-0.3,3.7-0.7
			c1.7-0.4,2.9-0.6,3.7-0.7c0.1,0.4,0.2,0.7,0.2,1.1c0,0.7-1.2,2.6-3.6,5.6c-2.3,2.9-3.9,4.6-4.8,5.1c-0.8,0.5-1.3,1.1-1.4,1.6
			c0.4,0,1,0.1,1.9,0.1c0.8,0.1,1.4,0.1,1.9,0.1c0.9,0,1.6-0.1,2.3-0.3c0,0.1-0.1,0.3-0.2,0.4s-0.2,0.3-0.2,0.4
			c0.7-0.1,1.4-0.4,1.8-0.9c0.2-0.2,0.6-0.8,1.1-1.6l0.6-0.1c0,0.4,0.2,0.7,0.4,1c0.2-0.5,0.2-0.8,0.2-1c0.5-0.2,0.9-0.3,1.2-0.2
			C110,27.5,110.1,28.6,110.1,29.8z M92.7,30.8L91.9,31c0-0.4,0-0.7-0.2-1c-0.2,0.5-0.4,1-0.6,1.4c-0.2,0.5-0.5,0.9-0.8,1.3
			C91.7,32.6,92.4,32,92.7,30.8z M92.3,19.6c0-0.2,0-0.6-0.1-1.1c-0.1-0.5-0.1-0.9-0.1-1.1c-0.5,0.2-0.7,0.7-0.7,1.4
			c0,0.8,0.2,1.5,0.7,2.2C92.2,20.4,92.3,20,92.3,19.6z M93.2,28.5c-0.6,0.6-1,1.1-1,1.4c0,0,0,0.1,0.1,0.2
			C92.6,29.8,92.9,29.2,93.2,28.5z M99.6,22.8c-1,0.7-2,1.4-2.8,2.1c-0.8,0.6-1.6,1.1-2.4,1.6c-1,0.7-1.7,1.4-1.9,2
			c0.7-0.8,2-1.7,3.8-2.6C97.8,25.1,98.9,24.1,99.6,22.8z M100.9,32.4c-0.9-0.1-1.9-0.1-2.8-0.1c-2.7,0-4.5,0.3-5.6,0.9
			C94.4,33.2,97.2,32.9,100.9,32.4z M97.1,31.2c-0.9,0.1-2.1,0.3-3.6,0.6c0-0.1-0.2-0.2-0.3-0.3c0,0.4-0.2,0.7-0.4,0.9
			C94,32.3,95.5,31.9,97.1,31.2z M106.5,16.5c-0.5,0-0.9-0.1-1.2-0.1c-0.7,0-2,0.2-4.1,0.6c-2.4,0.5-5.2,0.7-8.2,0.7
			c0,0.3,0,0.5-0.1,0.8c0.5-0.3,1.1-0.4,1.9-0.5c0.7,0,1.3,0,2-0.1c0.8-0.1,1.9-0.2,3.1-0.4c1.8-0.3,2.9-0.5,3.1-0.5
			c0.2,0.4,0.6,0.6,1.1,0.6c0.2,0,0.6,0,1.1-0.1c0.5-0.1,0.9-0.1,1.1-0.1C106.4,17,106.5,16.7,106.5,16.5z M101.4,18
			c-0.6-0.1-1.2-0.2-1.6-0.2c-0.6,0-1.3,0.1-2.1,0.3c-1.1,0.3-1.8,0.4-2.1,0.5C98.1,18.5,100.1,18.2,101.4,18z M101.4,25.4
			c-2,1.1-3.2,2.3-3.6,3.6c0.2-0.2,0.5-0.4,0.9-0.8c0.2-0.3,0.5-0.8,1-1.3c0.1-0.2,0.3-0.3,0.4-0.4c0.3-0.1,0.4-0.2,0.5-0.3
			C100.8,26,101,25.7,101.4,25.4z M105,30.3c-1.2,0-2.1-0.1-2.7-0.1c-2.5,0-4.1,0.2-4.5,0.6c0.4-0.1,1.5-0.2,3.4-0.2
			C102.3,30.5,103.6,30.4,105,30.3z M102.5,20.3l-0.5-0.5c-0.1,0.3-0.3,0.8-0.8,1.4c-0.4,0.6-0.7,1-0.7,1
			C101.2,21.6,101.8,21,102.5,20.3z M109.7,30c0-0.6-0.1-1.4-0.3-2.6c-0.1,0.4-0.2,0.9-0.5,1.7c-0.3,0.8-0.4,1.4-0.5,1.8
			c-0.2,0-1.2,0.3-3.1,0.8c-0.9,0.1-2.2,0.3-3.9,0.7c1,0,2.4-0.1,4.1-0.3c1.9-0.2,3.3-0.4,4.1-0.4C109.6,31.1,109.7,30.5,109.7,30z
			 M102.9,17.7c-0.1,0.1-0.6,0.1-1.2,0.2c0.7,0.1,1,0.1,0.9,0.1C102.8,18.1,102.9,18,102.9,17.7z M107.7,30.1
			c-0.6,0.4-1.9,0.8-3.7,1.1c0.4,0,0.9-0.1,1.7-0.2c0.8-0.1,1.3-0.2,1.7-0.2C107.4,30.6,107.5,30.4,107.7,30.1z M107.5,16.6
			L107.5,16.6c-0.7,0.9-1.2,1.7-1.5,2.1c-0.5,0.8-0.9,1.6-1.1,2.4c0.5-0.7,1-1.4,1.6-2.1C107.2,18,107.5,17.2,107.5,16.6z"/>
		<path id="XMLID_91_" fill="#FFFFFF" d="M132.3,29.8c0,0.8-0.1,1.7-0.2,2.8c-1,0.1-2.2,0.2-3.7,0.2c-2.6-0.1-3.8-0.1-3.7-0.1
			c-1.1,0-2.7,0.2-4.9,0.6c-2.2,0.4-3.9,0.6-5,0.6l-1,0l0.2-0.7c-0.3,0-1,0-2,0.1l0-0.5c-0.1-1.3,0.4-2.5,1.4-3.8
			c0.6-0.7,1.6-1.6,3.1-2.8c0.6-0.4,1.6-1.4,3.2-3c1.3-1.2,2.4-2.2,3.4-2.8c-0.8-0.2-1.6-0.2-2.3-0.2c-0.4,0-1.8,0.1-4.2,0.4
			l-0.1-0.5L116,20l0.2,1.5l-0.7,0.1c0-0.2-0.2-0.6-0.4-1l-0.6,0.9c-0.6-0.1-0.9-0.3-1.1-0.7c-0.1-0.2-0.1-0.6-0.1-1.3
			c0-0.2-0.2-0.6-0.5-1.1c-0.3-0.6-0.5-1-0.5-1.3c0-0.1,0-0.2,0.1-0.3l4.1,0c3,0,5.3,0,6.6-0.2c0.9-0.1,2.1-0.3,3.7-0.7
			c1.7-0.4,2.9-0.6,3.7-0.7c0.1,0.4,0.2,0.7,0.2,1.1c0,0.7-1.2,2.6-3.6,5.6c-2.3,2.9-3.9,4.6-4.8,5.1c-0.8,0.5-1.3,1.1-1.4,1.6
			c0.4,0,1,0.1,1.9,0.1c0.8,0.1,1.4,0.1,1.9,0.1c0.9,0,1.6-0.1,2.3-0.3c0,0.1-0.1,0.3-0.2,0.4s-0.2,0.3-0.2,0.4
			c0.7-0.1,1.4-0.4,1.8-0.9c0.2-0.2,0.6-0.8,1.1-1.6l0.6-0.1c0,0.4,0.2,0.7,0.4,1c0.2-0.5,0.2-0.8,0.2-1c0.5-0.2,0.9-0.3,1.2-0.2
			C132.3,27.5,132.3,28.6,132.3,29.8z M114.9,30.8l-0.7,0.2c0-0.4,0-0.7-0.2-1c-0.2,0.5-0.4,1-0.6,1.4c-0.2,0.5-0.5,0.9-0.8,1.3
			C113.9,32.6,114.7,32,114.9,30.8z M114.5,19.6c0-0.2,0-0.6-0.1-1.1c-0.1-0.5-0.1-0.9-0.1-1.1c-0.5,0.2-0.7,0.7-0.7,1.4
			c0,0.8,0.2,1.5,0.7,2.2C114.4,20.4,114.5,20,114.5,19.6z M115.5,28.5c-0.6,0.6-1,1.1-1,1.4c0,0,0,0.1,0.1,0.2
			C114.8,29.8,115.1,29.2,115.5,28.5z M121.8,22.8c-1,0.7-2,1.4-2.8,2.1c-0.8,0.6-1.6,1.1-2.4,1.6c-1,0.7-1.7,1.4-1.9,2
			c0.7-0.8,2-1.7,3.8-2.6C120,25.1,121.1,24.1,121.8,22.8z M123.1,32.4c-0.9-0.1-1.9-0.1-2.8-0.1c-2.7,0-4.5,0.3-5.6,0.9
			C116.6,33.2,119.4,32.9,123.1,32.4z M119.3,31.2c-0.9,0.1-2.1,0.3-3.6,0.6c0-0.1-0.2-0.2-0.3-0.3c0,0.4-0.2,0.7-0.4,0.9
			C116.2,32.3,117.7,31.9,119.3,31.2z M128.7,16.5c-0.5,0-0.9-0.1-1.2-0.1c-0.7,0-2,0.2-4.1,0.6c-2.4,0.5-5.2,0.7-8.2,0.7
			c0,0.3,0,0.5-0.1,0.8c0.5-0.3,1.1-0.4,1.9-0.5c0.7,0,1.3,0,2-0.1c0.8-0.1,1.9-0.2,3.1-0.4c1.8-0.3,2.9-0.5,3.1-0.5
			c0.2,0.4,0.6,0.6,1.1,0.6c0.2,0,0.6,0,1.1-0.1c0.5-0.1,0.9-0.1,1.1-0.1C128.6,17,128.7,16.7,128.7,16.5z M123.6,18
			c-0.6-0.1-1.2-0.2-1.6-0.2c-0.6,0-1.3,0.1-2.1,0.3c-1.1,0.3-1.8,0.4-2.1,0.5C120.3,18.5,122.3,18.2,123.6,18z M123.6,25.4
			c-2,1.1-3.2,2.3-3.6,3.6c0.2-0.2,0.5-0.4,0.9-0.8c0.2-0.3,0.5-0.8,1-1.3c0.1-0.2,0.3-0.3,0.4-0.4c0.3-0.1,0.4-0.2,0.5-0.3
			C123,26,123.2,25.7,123.6,25.4z M127.2,30.3c-1.2,0-2.1-0.1-2.7-0.1c-2.5,0-4.1,0.2-4.5,0.6c0.4-0.1,1.5-0.2,3.4-0.2
			C124.6,30.5,125.9,30.4,127.2,30.3z M124.8,20.3l-0.5-0.5c-0.1,0.3-0.3,0.8-0.8,1.4c-0.4,0.6-0.7,1-0.7,1
			C123.4,21.6,124.1,21,124.8,20.3z M131.9,30c0-0.6-0.1-1.4-0.3-2.6c-0.1,0.4-0.2,0.9-0.5,1.7c-0.3,0.8-0.5,1.4-0.5,1.8
			c-0.2,0-1.2,0.3-3.1,0.8c-0.9,0.1-2.2,0.3-3.9,0.7c1,0,2.4-0.1,4.1-0.3c1.9-0.2,3.3-0.4,4.1-0.4C131.8,31.1,131.9,30.5,131.9,30z
			 M125.2,17.7c-0.1,0.1-0.6,0.1-1.2,0.2c0.7,0.1,1,0.1,0.9,0.1C125,18.1,125.1,18,125.2,17.7z M129.9,30.1
			c-0.6,0.4-1.9,0.8-3.7,1.1c0.4,0,0.9-0.1,1.7-0.2c0.8-0.1,1.3-0.2,1.7-0.2C129.7,30.6,129.7,30.4,129.9,30.1z M129.8,16.6
			L129.8,16.6c-0.7,0.9-1.2,1.7-1.5,2.1c-0.5,0.8-0.9,1.6-1.1,2.4c0.5-0.7,1-1.4,1.6-2.1C129.4,18,129.8,17.2,129.8,16.6z"/>
		<path id="XMLID_108_" fill="#FFFFFF" d="M169.1,32.8c-0.9,0.5-2.1,0.7-3.7,0.7c-0.9,0-2.4-0.1-4.3-0.4c-1.9-0.2-3.2-0.4-4-0.3
			c-0.1-0.2-0.1-0.4-0.1-0.7c0.1-0.4,0.1-0.6,0.1-0.7c0-0.3-0.3-0.5-0.8-0.7c-0.4-0.1-0.8-0.3-1.2-0.4c0.5,0.1,0.9,0.2,1.5,0.3
			l0.2-0.8c-0.4,0-1.1,0-2-0.1c0-0.9,0.5-2.6,1.5-5c1-2.2,1.4-3.8,1.3-4.8c-0.4,0.5-1.3,1.6-2.8,3.3c-1.2,1.3-2,2.5-2.5,3.5
			c-0.3,1.2-0.7,2.3-1,3.5c-0.5,1.8-1,2.8-1.5,2.8l-0.2-0.8c-0.2,0-0.4-0.1-0.6-0.1c-0.2,0-0.6,0-1.1,0.1c-0.5,0.1-0.8,0.1-1.1,0.1
			c-0.5-1.2-1.1-3-1.8-5.5c-0.7-2.4-1.3-4.3-1.9-5.5c-0.3,0.6-0.6,1.7-1,3.4c-0.4,1.7-0.6,2.8-0.6,3.3c0.1,0.8,0.4,1.2,1.1,1.4
			c0.8,0.2,1.3,0.4,1.4,0.7c-0.6-0.1-1.1-0.2-1.5-0.2c-0.8,0-1.5,0.3-2,0.9c0.2,0,0.7,0.2,1.5,0.4c0.6,0.2,1.1,0.3,1.5,0.2
			c0.1,0.2,0.2,0.5,0.2,0.7c0,0.5-0.2,0.9-0.7,1c-0.3,0.1-1-0.1-2-0.4c-1.1-0.4-2-0.6-2.5-0.6c-0.4,0-0.9,0.1-1.6,0.3
			c-0.7,0.2-1.3,0.3-1.6,0.3c-0.6,0-1-0.1-1.3-0.4s-0.4-0.7-0.4-1.2c0.8,0.1,1.3,0.2,1.4,0.2c0.7,0,1.3-1.8,1.7-5.2
			c0.4-2.8,0.5-5,0.4-6.4c0-0.4-0.3-3.1-0.8-8.2H136l-0.2-0.4l0.7-0.1l0.1-0.5c-0.2-0.1-0.5-0.3-0.9-0.6c-0.3-0.3-0.6-0.5-0.8-0.6
			s-0.3-0.1-0.3-0.1l0.1,0.2l-0.4-0.1l0.4-0.9c0.6,0.1,1.3,0.2,2.1,0.1c0.4-0.2,1-0.3,1.9-0.5c0.4,0,1.1,0.3,2,0.9
			c1,0.6,1.8,0.9,2.5,0.9c0.4,0,0.8-0.2,1.4-0.5c0.6-0.3,1-0.5,1.3-0.5c0.9,2.2,1.6,4.2,2,6c0.3,1.5,0.5,3.6,0.7,6.2
			c0.1,1.3,0.4,2.5,1,3.6c1.9-1,3.5-2.9,4.9-5.5c0.8-1.6,1.7-3.8,2.7-6.8c0.8-2.4,1.4-3.7,1.7-4l0.3,0.3c0.4,0,0.7-0.1,1.1-0.1
			c0.8,0,2,0.1,3.5,0.4c1.6,0.3,2.7,0.4,3.5,0.4c-0.1,0.3-0.4,0.5-0.9,0.7c-0.7,0.2-1.1,0.3-1.2,0.3c-0.6,0.3-0.9,0.8-0.9,1.3
			c0,0.2,0.1,0.6,0.2,1c0.1,0.5,0.2,0.8,0.2,1.1c0.1,1.2-0.1,3-0.5,5.5c-0.4,2.4-0.6,4.3-0.5,5.5c0,0.6,0.4,1.4,0.9,2.5
			c0.6,1,0.9,1.9,0.9,2.6c0,0.6-0.1,1.2-0.4,1.8c1.1,0.1,1.7,0.2,2,0.2C168.1,32,168.7,32.3,169.1,32.8z M138.3,32.2
			c-0.4,0-0.8,0-1.2-0.1c-0.5-0.1-0.8-0.2-1.1-0.5c-0.3,0.1-0.8,0.3-1.4,0.6C135.7,32.4,136.9,32.4,138.3,32.2z M135.4,9
			c0.6,0.7,1.2,1,1.6,1.1l0,0.7c0.4-0.1,0.9-0.1,1.5-0.1c0.8,0.1,1.3,0.1,1.5,0.1c0-1.4-0.9-2.2-2.6-2.2
			C136.8,8.7,136.2,8.8,135.4,9z M139.5,30.4c-1.2,0-2,0.4-2.7,1.1c0.6,0,1.4,0.1,2.5,0.2C139.4,31.1,139.5,30.7,139.5,30.4z
			 M137.6,25.6c0.1,1.3,0,2.7-0.3,4.2c0.5-0.3,0.7-0.8,0.7-1.5c0-0.3-0.1-0.8-0.2-1.4C137.7,26.3,137.6,25.8,137.6,25.6z
			 M139.7,13.3c-0.1-0.7-0.7-1.1-1.8-1.3c0-0.2-0.1-0.4-0.2-0.7c-0.2,0.2-0.2,0.4-0.2,0.7c0,0.2,0.1,0.6,0.2,1
			c0.1,0.5,0.2,0.8,0.2,0.9c-0.1,0.7-0.1,1.8-0.2,3.2c0.1,0.9,0.3,2.2,0.5,4c0.2-1,0.3-2,0.5-3c0.2-1,0.2-1.9,0.2-2.7
			c0-0.9-0.1-1.8-0.3-2.7C139.1,12.8,139.4,13,139.7,13.3z M138.7,21c0,0.3-0.2,1-0.4,2.1c-0.2,0.9-0.3,1.6-0.2,2.2
			c0,0.3,0.1,0.8,0.3,1.5c0.2,0.7,0.2,1.2,0.2,1.6c0,0.6-0.2,1-0.5,1.4l0.3,0.1c0.7-0.6,1-1.5,1-2.8c0-0.7-0.1-1.7-0.4-3.2
			C138.8,22.5,138.7,21.6,138.7,21z M140.3,16.2c-0.7,3.2-1.1,5.5-1.1,6.8c0,1.1,0.1,2.3,0.4,3.5c0.2-0.6,0.3-1.3,0.3-1.9
			c0-0.4,0-0.9-0.1-1.6c-0.1-0.7-0.2-1.3-0.2-1.6c0-0.5,0.1-1.2,0.4-2.1s0.5-1.6,0.5-2C140.5,16.8,140.4,16.5,140.3,16.2z
			 M139.3,13.9l0.1,2.9c0.2-0.6,0.3-1.1,0.3-1.5C139.7,14.9,139.6,14.4,139.3,13.9z M143.6,32.4l-0.2-0.3c-0.2,0.1-0.3,0.1-0.5,0.1
			c-0.3,0-0.7-0.1-1.2-0.3s-0.9-0.3-1.2-0.3c0-0.4,0-0.8-0.1-1c-0.1,0.3-0.4,0.8-0.8,1.5C140.4,32.2,141.7,32.3,143.6,32.4z
			 M141.4,10.7c-0.1-0.1-0.2-0.2-0.4-0.4c-0.1-0.3-0.2-0.4-0.3-0.5c0,0,0,0.3-0.1,0.9H141.4z M148.2,18.1l-0.4-2.5
			c-0.2-1-0.4-1.8-0.6-2.4c-0.2-0.3-0.4-0.8-0.7-1.5c-0.1-0.4-0.2-0.9-0.4-1.6c-0.3-0.1-0.6-0.1-0.9-0.1c-0.2,0-0.6,0-1,0.1
			s-0.8,0.1-1,0.1c-0.5,0-1-0.1-1.5-0.3l0.4,0.7c0.3-0.1,0.7-0.1,1.2-0.2c0.1,0.1,0.2,0.4,0.4,0.6c0.2,0.3,0.3,0.5,0.3,0.6
			c0.1,0,0.4-0.1,0.7-0.1c0.9,0,1.7,0.8,2.3,2.6C147.4,15.5,147.8,16.8,148.2,18.1z M144.5,19.4c-0.1,0.4-0.2,0.8-0.2,1.2
			c0,0.4,0.1,0.8,0.2,1.3c0.2,0.8,0.3,1.3,0.3,1.4c0-0.2,0.1-0.5,0.1-1.1c0-0.4,0.1-0.8,0.1-1.1C144.9,20.5,144.8,19.9,144.5,19.4z
			 M146.3,26.4c-0.1-0.5-0.2-1.4-0.4-2.9c-0.2-1.2-0.4-2.1-0.6-2.8c0.1,1,0.1,1.9,0.2,2.9C145.5,24.6,145.8,25.6,146.3,26.4z
			 M149.3,31.7c-0.8-0.8-2.1-2.6-3.8-5.4c0.2,0.8,0.4,1.5,0.7,2.3c0.3,1,0.7,1.7,1.1,2.1C147.7,31.3,148.4,31.6,149.3,31.7z
			 M150.6,28.1c-0.1,0.1-0.4,0.5-0.8,1.1c-0.4,0.5-0.6,0.8-0.7,0.8c-0.2-0.3-0.5-0.5-0.8-0.7c0.5,0.6,0.8,1.2,1.1,1.6
			c0.1-0.4,0.3-0.8,0.6-1.5C150.3,28.9,150.5,28.4,150.6,28.1z M151.2,28.5c-0.1,0.3-0.3,0.8-0.6,1.3c-0.4,0.6-0.5,1-0.5,1.3
			c0,0.4,0.1,0.7,0.4,1.1C150.8,30.8,151.1,29.5,151.2,28.5z M155.6,21.1c-1.1,0.7-2,1.8-2.8,3.2c-0.7,1.2-1.4,2.5-2,3.7
			c0.8-0.7,1.6-1.9,2.5-3.4C154.3,22.8,155.1,21.7,155.6,21.1z M157.7,18.8c-0.3,0.2-0.9,0.9-1.8,1.9
			C156.7,20.4,157.3,19.8,157.7,18.8z M159.4,9.1c-0.2,0.4-0.5,1-0.7,1.8c-0.3,1-0.4,1.6-0.5,1.8c-0.4,1-1,2.2-1.7,3.5
			C158.3,14.2,159.3,11.8,159.4,9.1z M158.5,24.6c-0.1,1.5-0.2,2.4-0.2,2.8c-0.1,1-0.4,1.9-0.7,2.7c0.8-0.4,1.1-1.2,1.1-2.4
			c0-0.4,0-0.9-0.1-1.6C158.5,25.3,158.5,24.8,158.5,24.6z M159.1,31.3c-0.3-0.1-0.8-0.1-1.5-0.2c0,0.3,0,0.5,0,0.6
			C157.9,31.6,158.4,31.5,159.1,31.3z M158.8,32.4c-0.4-0.2-0.6-0.3-0.7-0.3c-0.1,0-0.2,0.1-0.2,0.2c0,0.1-0.1,0.2-0.2,0.2
			C157.9,32.4,158.3,32.4,158.8,32.4z M164.3,10.2c-0.2,0-0.3,0-0.5,0c-0.3,0-0.8,0.1-1.3,0.2c-0.6,0.1-1,0.2-1.3,0.2
			c-0.4,0-0.8-0.1-1.1-0.2c-0.1,0.2-0.4,0.6-0.6,1.1c0.2-0.1,1.1-0.2,2.7-0.2C163.4,11.1,164.1,10.8,164.3,10.2z M165.7,9.7
			c-0.7-0.2-1.4-0.2-2.2-0.2c-0.4,0-1,0-1.7,0.1c-0.7,0.1-1.3,0.1-1.6,0.1c0.2,0.1,0.6,0.3,1.2,0.4c0.2-0.3,0.6-0.4,1.2-0.4
			c0.5,0,1,0.1,1.6,0.2c0.5,0.2,0.8,0.3,0.8,0.5C165.1,10.2,165.4,10,165.7,9.7z M167.8,32.6c-0.8-0.3-1.8-0.4-2.7-0.4
			c-0.1-0.5-0.5-0.8-1.1-1.1c-0.6-0.3-1.1-0.4-1.7-0.3c-0.7,0.1-1.2,0.3-1.3,0.8c-0.2,0.5-0.4,0.8-0.5,0.8c2.5,0.3,4.1,0.5,4.7,0.5
			C166.1,32.9,167,32.8,167.8,32.6z M163.4,12.1c-0.8,0.3-1.3,1.2-1.3,2.6c0,0.4,0,1,0.1,1.7c0.1,0.8,0.2,1.3,0.2,1.4
			c0,1-0.1,2.3-0.4,4c-0.3,1.9-0.5,3.2-0.5,4c0.1-1.3,0.5-3.2,1.1-5.7c0.6-2.3,0.9-4.1,0.9-5.6C163.7,13.9,163.6,13,163.4,12.1z
			 M164.2,17.4c-0.5,2.4-1.3,5.9-2.5,10.7c0.4,0.1,0.6,0.3,0.6,0.7c0,0.1,0,0.2-0.1,0.3c0.3,0.1,0.6,0.3,1,0.4
			c0.3,0.1,0.6,0.3,0.7,0.5l0.4-0.1c0-0.3,0.1-0.6,0.1-0.9c0-0.6-0.1-1.4-0.4-2.5c-0.3-1.1-0.5-1.9-0.5-2.5c-0.1-1,0-2.1,0.2-3.4
			C163.9,19.7,164,18.6,164.2,17.4z M164.3,10.8c-0.5,0.6-0.6,1.7-0.3,3.3C164.2,13.1,164.3,12,164.3,10.8z"/>
		<path id="XMLID_138_" fill="#FFFFFF" d="M191.6,28.5c0,0.2-0.3,0.7-1.1,1.5c-0.8,0.8-1.3,1.3-1.7,1.3c-0.6,0.2-1.3,0.2-2,0.2
			c-1.6,0-2.8-0.4-3.7-1.3c-2.3,1.7-4.3,2.8-5.9,3.2c-0.4,0.1-0.8,0.2-1.3,0.2c-1.4,0-2.7-0.4-3.8-1.1c-1.3-0.8-2-1.9-2-3.3
			c0-0.8,0.2-1.7,0.7-2.8c0.7-1.4,2.2-2.5,4.5-3.1c1.9-0.4,3.8-0.8,5.7-1.2l0.7-0.2c-0.2-0.2-0.4-0.6-0.6-1.2
			c-0.2-0.6-0.4-1-0.6-1.2c-0.3-0.4-0.9-0.6-1.6-0.6c-0.5,0-1.1,0.1-1.8,0.3c-0.8,0.2-1.1,1-1,2.4c-0.2,0-0.6,0-1.2,0.2
			c-0.5,0.2-0.9,0.2-1.1,0.2c-0.3,0-0.5-0.2-0.6-0.5l-0.6,0.9c-1.5,0.1-2.4-0.3-2.6-1.2c0-0.2-0.1-0.3-0.1-0.5
			c0-1.1,0.8-2.1,2.3-3.2c1.2-0.9,2.4-1.4,3.7-1.7c2.2-0.5,4.2-0.8,6.1-0.8c3.2,0,5,0.8,5.4,2.5c0.1,0.4,0.2,0.9,0.2,1.4
			c0,0.7-0.1,1.7-0.4,3.1s-0.4,2.5-0.4,3.2c0,0.7,0.1,1.3,0.3,1.9l0.3,1c0.3-0.1,0.8-0.3,1.6-0.7c-0.2,0.4-0.2,0.7-0.2,0.9
			c0.1,0.3,0.3,0.3,0.7,0.2c0.2-0.1,0.5-0.2,0.8-0.5c0.4-0.3,0.7-0.5,0.8-0.6c0,0.2,0.1,0.4,0.3,0.6S191.6,28.4,191.6,28.5z
			 M176.8,16.2c-0.4,0.1-1,0.2-1.8,0.4c-1,0.2-1.8,0.6-2.6,1.1c-1.1,0.6-1.6,1.3-1.6,2.1c0,0.6,0.4,1.2,1.1,2
			c0.1-1.1,0.7-2.2,1.8-3.3C174.1,18.2,175.1,17.4,176.8,16.2z M173.3,25c-1.6,0.7-2.5,1.8-2.5,3.4c0,0.5,0.1,1.2,0.2,1.9
			c0.1-1.3,0.3-2.3,0.5-2.9C172,26.5,172.5,25.7,173.3,25z M178.9,31.3c-0.2,0-0.7,0.2-1.5,0.4c-0.6,0.2-1.1,0.3-1.5,0.3
			c-0.8,0-1.6-0.2-2.4-0.7c-0.7-0.5-1.2-1.1-1.4-1.9c-0.1-0.4-0.1-0.8-0.1-1.2c-0.2,1-0.2,1.8,0,2.4c0.3,1.3,1.3,1.9,2.9,1.9
			c0.6,0,1.2-0.1,2-0.4C177.6,31.8,178.3,31.6,178.9,31.3z M182.6,29.8c-0.4,0.2-1.2,0.7-2.4,1.5c-1,0.7-1.8,1.1-2.5,1.2
			c-0.8,0.1-1.9,0.2-3.4,0.5C178.3,33.1,181,32,182.6,29.8z M178.1,17.7c-1.5,0.2-2.5,0.7-3,1.7c0.4-0.4,1-0.7,1.6-0.9
			C177.4,18.2,177.8,17.9,178.1,17.7z M180,17.3c-0.4-0.3-0.8-0.5-1.4-0.5c-0.6,0-1.5,0.3-2.9,0.9c0.5-0.1,1.1-0.2,1.6-0.3
			c0.6-0.1,1.1-0.2,1.5-0.2C179.2,17.1,179.6,17.2,180,17.3z M181.6,24.2c-0.4,0.2-1,0.3-1.7,0.3c-0.9,0.1-1.5,0.1-1.8,0.2
			c-1.6,0.4-2.3,1.3-2.3,2.8c0,0.3,0,0.6,0.1,0.9c0.7-0.1,1.8-0.3,3.2-0.5c0.9-0.2,1.7-0.6,2.2-1.1c0.4-0.3,0.5-0.7,0.5-1.1
			C181.8,25.8,181.8,25.3,181.6,24.2z M181.6,23.7c-0.5-0.1-1.2,0-2.4,0.3c-0.5,0.1-1.2,0.3-2.1,0.6c0.5,0,1.1-0.1,1.7-0.2
			C179.4,24.2,180.3,24,181.6,23.7z M182.4,26.8c-0.4,0.8-1.5,1.8-3.3,3c1.1-0.5,1.8-0.8,2.2-1.1C182,28.3,182.4,27.6,182.4,26.8z
			 M185.9,19.8c-0.3-1.3-1.1-2.3-2.5-2.9c-1.1-0.5-2.4-0.8-3.9-0.9c0.4,0.4,1.1,0.7,2.2,1c1.3,0.4,2.2,0.6,2.5,0.8
			c0.8,0.4,1.2,1.1,1.2,2c0,0.4-0.1,1.1-0.3,2.2c-0.2,1.1-0.3,1.9-0.3,2.5c0,0.5,0.1,1,0.2,1.4c0.1,0.3,0.3,0.8,0.7,1.5
			c0,0-0.1-0.4-0.3-1.1c-0.1-0.5-0.2-0.9-0.2-1.2c0-0.4,0.1-1,0.4-1.9c0.2-0.9,0.4-1.6,0.4-2.1C186,20.6,186,20.2,185.9,19.8z
			 M186.7,18.5c-0.5-1.7-1.6-2.6-3.3-2.7c1.4,0.9,2.3,2.1,2.7,3.4c0.1,0.2,0.2,1.7,0.4,4.2c0.3-1.2,0.4-2.2,0.4-3.1
			C187,19.6,186.9,19,186.7,18.5z M188.6,29.7c-0.1,0.1-0.2,0.1-0.3,0.1c-0.4,0.1-0.8,0.1-1.2,0.1c-0.4,0-0.9,0-1.6-0.1
			c-0.6-0.1-1-0.1-1.1,0c-0.1,0-0.2,0.1-0.1,0.2c0.8,0.3,1.5,0.4,2.2,0.4C187.3,30.4,188,30.2,188.6,29.7z M190.7,28.8l-0.2-0.2
			c0,0-0.4,0.4-1,1.1c-0.4,0.4-0.8,0.7-1.2,0.8c-0.7,0.2-1.7,0.2-3.1,0.2c1,0.4,1.6,0.6,1.8,0.6c0.2,0,0.4,0,0.7-0.1
			C188.6,30.9,189.7,30.1,190.7,28.8z"/>
		<path id="XMLID_153_" fill="#FFFFFF" d="M211.7,19.8c0,0.3-0.1,0.6-0.2,1.1l-0.5,0c-0.4,0-1,0.1-1.7,0.3c-0.8,0.2-1.4,0.4-1.7,0.4
			c-0.3,0-0.6-0.2-1-0.6c-0.5-0.6-0.9-0.9-1.3-1.1c-0.7-0.4-1.7-0.6-2.8-0.6c-0.7,0-1,0-1,0c-0.5,0-0.7,0.2-0.7,0.4
			c0,0.9,0.9,1.7,2.8,2.4c3.1,1.2,4.8,1.9,5.2,2.1c1.9,1.1,2.8,2.5,2.8,4.2c0,1.4-1,2.5-2.9,3.4c-1.6,0.7-3.2,1.1-4.7,1.1
			c-0.6,0-1.5-0.1-2.7-0.4s-2.1-0.4-2.7-0.4c-0.4,0-0.9,0.1-1.6,0.3s-1.2,0.3-1.6,0.2c-0.2-0.4-0.7-1-1.7-1.9
			c-0.8-0.7-1.2-1.5-1.2-2.3c0-0.2,0-0.6,0.1-1.1c0.1-0.5,0.1-0.8,0.1-1.1c1.2,0.1,1.9-0.2,2-0.7c1.1-0.2,2-0.3,2.5-0.3
			c0,0.1,0,0.3-0.1,0.6c-0.1,0.3-0.1,0.5-0.1,0.6c0,0.6,0.8,1,2.3,1.3c1.1,0.3,2.2,0.4,3,0.4c0.8,0,1.4-0.2,2-0.5
			c-0.9-0.9-2.4-1.8-4.4-2.9c-2.2-1.1-3.8-1.7-4.8-1.7c0-0.4-0.1-1-0.3-1.8c-0.2-0.8-0.3-1.4-0.3-1.8c0-1.4,0.7-2.6,2-3.5
			c1.2-0.8,2.6-1.1,4.1-1.1c0.7,0,1.6,0.2,2.9,0.7c1.3,0.4,2.2,0.7,2.8,0.7c0.2,0,0.5-0.1,0.9-0.3c0.4-0.2,0.7-0.3,0.9-0.3
			c0,0.3,0.7,0.9,1.9,1.8C211.1,18.2,211.7,19,211.7,19.8z M194.9,30.3c0-0.3-0.1-0.8-0.3-1.4c-0.2-0.6-0.3-1-0.3-1.3
			c0-0.5,0.1-0.9,0.4-1.4c-0.7,0.2-1.2,0.3-1.4,0.2c0.1,0.9,0.2,1.6,0.3,2.1C193.9,29.2,194.3,29.7,194.9,30.3z M197.4,17.5
			c-1.6,0.7-2.4,1.5-2.4,2.5c0,0.3,0.1,0.7,0.2,1.2c0.6-0.1,0.9-0.1,1-0.1c-0.6-0.2-0.8-0.6-0.8-1c0-0.4,0.3-0.8,0.8-1.4
			C196.6,18.3,197,17.9,197.4,17.5z M200.7,31.4c-0.7-0.2-1.8-0.6-3.2-1.1c-0.1,0.2-0.4,0.4-0.9,0.5c-0.2-0.2-0.3-0.7-0.5-1.4
			c-0.2-0.6-0.4-1-0.7-1.3c0.1,0.4,0.2,0.8,0.2,1.1c0,0.3-0.1,0.8-0.3,1.7c2.1,0.4,3.6,0.6,4.6,0.5L200.7,31.4z M196.1,22.1
			c0-0.1-0.1-0.2-0.3-0.3s-0.3-0.2-0.5-0.3c0.1,0.2,0.2,0.5,0.2,1C196,22.3,196.1,22.2,196.1,22.1z M207.9,18.8
			c-0.1-0.6-0.3-1.3-0.3-2.1c-0.2,0.1-0.5,0.4-0.8,0.7c-0.2-0.3-0.6-0.7-1.1-1.2c-0.7-0.5-2.4-0.8-5.1-0.8c-1.5,0-2.6,0.1-3.2,0.4
			c-0.4,0.2-0.7,0.5-0.8,0.9c-0.2,0.5-0.4,0.9-0.7,1.1c0.4-0.1,0.8-0.4,1.2-0.7c0.6-0.5,1-0.8,1.4-0.9c0.7-0.3,1.5-0.5,2.5-0.5
			c1.8,0,3.3,0.5,4.6,1.5C206.1,17.5,206.9,18,207.9,18.8z M200.6,30.8c0-0.1-0.1-0.2-0.3-0.3c-0.2-0.1-0.2-0.1-0.2-0.1l-1-0.1
			C199.4,30.6,199.9,30.8,200.6,30.8z M205.7,29c-0.9,0.4-1.9,0.6-3.1,0.6c-0.5,0-1.1,0-1.8-0.1c-1-0.1-1.6-0.1-1.8-0.1
			c0.9,0.6,1.9,0.9,3.2,0.9c0.7,0,1.6-0.1,2.6-0.3l0.2,0.2C205.3,29.9,205.5,29.5,205.7,29z M204.2,26.8c-0.4-0.6-1.2-1.3-2.4-1.9
			c-1.4-0.7-2.2-1.2-2.6-1.6c0.3,0.8,1.1,1.5,2.4,2C203,26,203.9,26.5,204.2,26.8z M202.5,22.2c-1.3-1.5-2.4-2.4-3.2-2.7
			c0.1,0.1,0.3,0.3,0.5,0.6C200.8,21.3,201.7,22,202.5,22.2z M205,17.7c-1.1-0.5-2.1-0.7-3-0.7c-0.5,0-1,0.1-1.4,0.3
			s-0.8,0.5-1.2,0.7c1-0.4,1.9-0.6,2.8-0.6c0.3,0,0.8,0.1,1.3,0.2c0.6,0.1,1,0.2,1.3,0.2H205z M210.6,28.7c0-0.6-0.2-1.2-0.6-1.7
			c0.1,0.4,0.1,0.7,0.1,0.9c0,1.7-1.4,2.8-4.3,3.5c-1.8,0.4-3.9,0.6-6.3,0.5c2.8,0.2,4.3,0.2,4.7,0.2
			C208.4,32,210.6,30.9,210.6,28.7z M206.4,30.9c-1.6,0.2-3.2,0.3-5.1,0.2c0.4,0.1,0.7,0.2,1.1,0.3c0.4,0.1,0.7,0.2,1,0.2
			C204.2,31.5,205.2,31.3,206.4,30.9z M207.7,24.9c-0.1-0.1-0.3-0.3-0.6-0.5c0.1,0.2,0.3,0.5,0.5,0.9L207.7,24.9z M209.6,28.4
			c-0.3,0.1-0.5,0.4-0.8,0.7c-0.2,0.2-0.6,0.5-1.3,0.7C208.9,29.6,209.6,29.2,209.6,28.4z M211,19.7c0-1.1-0.9-2-2.8-2.8
			c0.1,0.4,0.4,0.8,0.9,1.3s0.8,0.9,0.8,1.2c0,0.4-0.2,0.9-0.7,1.4c0.6-0.3,1.1-0.4,1.7-0.5C211,20,211,19.8,211,19.7z M209.8,26.2
			c0-0.6-0.4-1.2-1.1-1.7c0.1,0.4,0.2,1.1,0.3,2c0.1,0.9,0.2,1.5,0.3,1.8c0-0.2,0.1-0.6,0.2-1.1C209.7,26.8,209.8,26.4,209.8,26.2z"
			/>
		<path id="XMLID_171_" fill="#FFFFFF" d="M108,75.6c0,0.6-0.2,1.4-0.6,2.2c-0.6,1.2-0.9,1.9-0.9,2.1c-0.7,2.3-1.3,3.7-1.8,4.2
			c-0.8,0.9-2.3,1.3-4.5,1.3c-2.8,0-7.1-0.2-12.8-0.7c-5.7-0.5-10-0.7-12.9-0.7v-0.4c0-0.4,0.2-0.9,0.5-1.4c0.4-0.7,0.6-1.2,0.7-1.3
			L69.5,81c1-1.3,2.1-3.6,3.3-6.9c1.1-3,2.2-5.2,3.4-6.4c1.5-1.5,4-2.6,7.6-3.2c5.2-0.9,7.9-1.4,8.1-1.5c2.5-0.8,3.8-2.4,3.8-4.7
			c0-1.2-0.3-2.5-1-3.9c-0.8-1.6-1.7-2.5-2.7-2.5c-1.9,0-3.6,0.4-5.1,1.3c-1.7,1-2.5,2.4-2.5,4.2c0,0.5-0.6,0.8-1.8,0.8
			c-0.3,0-0.8,0-1.5-0.1c-0.7-0.1-1.2-0.1-1.5-0.1v-0.8c-0.9-0.1-2.1-0.1-3.7,0.2c0.2-0.5,0.4-0.9,0.4-1.3c0-0.2,0-0.4-0.1-0.7
			C76,54.9,76,54.7,76,54.6c-1,0.7-1.8,1.1-2.3,1.1c-0.7,0-1.1-0.5-1.1-1.4c0-2.4,0.8-4.5,2.4-6.4c1.5-1.8,3.4-3,5.7-3.7
			c0.6-0.2,1.5-0.7,2.7-1.7c0.9-0.7,2.1-1,3.6-1c1.4,0,3,0.4,4.7,1.1c1.5,0.7,3,1.4,4.5,2c1.5,0.6,3.1,1.2,4.7,1.8
			c1.7,0.7,2.9,1.5,3.7,2.5c1,1.2,1.5,2.9,1.5,4.9c0,3.2-1,6.1-2.9,8.5c-1.4,1.8-3.7,3.7-6.9,5.6c-2.7,1.7-5.4,3.3-8,5
			c2,0.8,5,1.4,8.9,1.6c-0.2,0.3-0.3,0.7-0.4,1.1c-0.1,0.7-0.2,1.1-0.3,1.3L98,77c1.1,0,2.4-0.5,3.9-1.4c1.5-0.9,2.2-1.4,2.1-1.4
			l-0.1,0.1c-0.6,1.1-0.9,1.8-1,2c-0.4,0.8-0.9,1.4-1.4,1.9l0.4,0.1c0.6,0,1.2-0.2,1.7-0.5c0.7-0.4,1-0.9,0.9-1.5
			c0.2-0.1,0.7-0.3,1.5-0.8c0.6-0.3,1.1-0.5,1.6-0.4h0.4V75.6z M79.3,76.3c-0.3,0.1-1.4,0.3-3.1,0.5c-0.2-0.2-0.4-0.4-0.7-0.4
			c-0.2,0-0.6,0.1-1,0.2c0.2-0.9,0.6-2.1,1.2-3.7c0.6-1.6,1-2.7,1.2-3.5c-1.5,1.1-2.4,2.7-2.7,4.9c-0.3,2.6-0.9,4.4-1.6,5.4
			c0.3,0,0.7,0.1,1.3,0.3c0.5,0.2,0.9,0.3,1.1,0.3c1.1,0,1.9-0.5,2.5-1.6C78.4,77.4,79,76.5,79.3,76.3z M93.5,44
			c-0.9-0.3-2-0.5-3.4-0.5c-2.2,0-4.5,0.3-7,1c-3,0.8-5.1,1.8-6.1,3.1c-0.9,1-1.5,2.2-1.8,3.3c-0.3,1.2-0.7,2.4-1,3.6l1.5-0.6
			c-0.2-0.4-0.3-0.8-0.3-1.2c0-1.5,1.6-3.4,4.7-5.7c1.6-1.1,3.8-1.8,6.6-1.9C89.9,44.9,92.2,44.6,93.5,44z M105.4,77.5
			c-0.5,0.3-1.6,1.3-3.2,2.9c-1.2,1.1-2.5,1.7-4,1.7c-0.8,0-1.9-0.1-3.2-0.4c-1.5-0.3-2.6-0.4-3.2-0.5c-0.7,0-1.6,0-2.8,0.1
			c-1.4,0.1-2.3,0.1-2.8,0.1c-0.6,0-1.6-0.1-2.9-0.2C81.9,81.1,81,81,80.3,81c-2.5,0-3.8,0.7-4,2.2c0.9,0.1,2,0.2,3.2,0.2
			c1,0,2.6-0.1,4.6-0.3c2.1-0.2,3.6-0.3,4.6-0.3c1,0,2.5,0.1,4.5,0.4c2,0.3,3.5,0.4,4.5,0.4c1.6,0,3.2-0.4,4.8-1.1
			c1.3-0.6,2-1.2,2.2-2C105,79.5,105.2,78.5,105.4,77.5z M83.8,46.9c-0.9,0.4-1.8,0.8-2.7,1.2c-1.6,0.8-2.9,1.9-3.6,3.3
			c0.3-0.3,1.4-1,3.3-2C82.4,48.5,83.4,47.6,83.8,46.9z M85.7,50.1c-0.4-0.1-0.9-0.2-1.6-0.2c-1.5,0-2.9,0.7-4.1,2.1
			c-0.4,0.5-1.2,1.8-2.6,4.1c1.8-0.3,3.3-1.2,4.5-2.7C83.6,51.7,84.9,50.6,85.7,50.1z M88.9,67.7c-0.2,0-0.5-0.1-0.9-0.1
			c-3.1,0-5.9,1.1-8.2,3.3C82.9,69.4,86,68.3,88.9,67.7z M94.9,77.3c-2.6-0.2-6.4-0.5-11.6-0.8c0.7,0.1,1.9,0.3,3.7,0.8
			c1.5,0.4,2.9,0.6,4,0.6C92.4,78,93.7,77.8,94.9,77.3z M93,68.3c-1.6,0.3-2.9,0.7-3.8,1.3c-1,0.6-1.9,1.6-2.5,3
			C88.2,71.7,90.3,70.3,93,68.3z M101.5,50.6c0-1.8-1-3.2-3.1-4.2c-1.6-0.8-3.4-1.3-5.4-1.3c-1.4,0-2.7,0.3-4,1
			c0.3,0,0.8-0.1,1.5-0.1c4,0,7.2,1.5,9.5,4.6c0.2,0.3,0.5,0.8,0.8,1.5c0.3,0.7,0.5,1.2,0.7,1.5c-0.1-0.3-0.2-0.6-0.2-1
			c0-0.2,0-0.6,0.1-1.1C101.4,51.2,101.5,50.9,101.5,50.6z M99.2,64.5c-1.3,0.5-3.3,1.2-6,2.2C95.6,66.6,97.6,65.8,99.2,64.5z
			 M102.8,57.9c0-0.6-0.2-1.1-0.5-1.8c-0.3-0.6-0.5-1.1-0.5-1.3c0,0.2,0,0.5,0.1,0.8c0,0.3,0,0.6,0,0.8c0,2-0.7,4-2,5.9
			C101.8,60.8,102.8,59.3,102.8,57.9z M104.5,55.2c0-3.6-1.1-6.1-3.4-7.5c0.6,0.5,0.9,1.7,0.9,3.4c0,0.9,0.2,2.1,0.7,3.7
			c0.5,1.6,0.7,2.8,0.7,3.6c0,1.5-0.4,2.6-1.3,3.4c-1.2,1-1.9,1.8-2,2.1c0.1-0.1,0.7-0.5,1.8-1.1c0.7-0.4,1.1-0.9,1.5-1.5
			C104.1,59.7,104.5,57.7,104.5,55.2z"/>
		<path id="XMLID_185_" fill="#FFFFFF" d="M146.4,68.8c0,5.5-1.4,9.7-4.1,12.6c-2.9,3-7.1,4.5-12.6,4.5c-2.2,0-3.9-0.2-5.2-0.7
			c-0.7-0.3-1.6-0.8-2.6-1.6c-1-0.8-2.1-1.3-3-1.7c-1.7-0.6-3-1.6-3.9-3.1c-0.6-1-1.1-2.6-1.5-4.6c-0.5-2.5-0.9-4.2-1.3-5.1
			c-0.9-2.3-1.3-4.3-1.3-6.2c0-5.5,1.3-10.1,3.9-13.9c3-4.4,7-6.6,12.1-6.6c12.1,0,18.2,7.7,18.2,23.1c0,0.5,0.2,1,0.6,1.6
			C146.2,67.9,146.4,68.4,146.4,68.8z M131.4,44.4c-1.5-0.6-3.1-0.9-4.7-0.9c-4.8,0-8.5,2.1-11.2,6.2c-2.3,3.5-3.5,7.8-3.5,12.8
			c0,1.4,0.1,2.9,0.3,4.6c0.1-2.3,0.2-4.1,0.5-5.3c0.3-1.4,0.9-3.1,1.7-5.1c0.2-0.4,0.3-1,0.4-1.9c0-0.7,0.2-1.3,0.6-1.8
			c0.3-0.5,1-1,1.8-1.6c0.9-0.6,1.5-1.2,1.8-1.5c0.9-1.4,1.8-2.7,2.7-4c1-1.3,2.5-2,4.5-2c0.7,0,1.6,0.1,2.6,0.2
			C130.2,44.3,131,44.4,131.4,44.4z M125.4,82.1c-0.3-0.4-0.8-0.8-1.4-1c-0.6-0.3-1.2-0.5-1.7-0.7c-3.2-1.5-5.4-4.3-6.6-8.4
			c-0.4-1.5-0.9-5.2-1.6-11.2c-0.5,2.7-0.7,4.9-0.7,6.6c0,3.2,1,6.4,3.1,9.6c2.3,3.6,5,5.3,7.9,5.2L125.4,82.1z M118.4,80.7v-0.1
			c-0.5-1.1-1.3-2.1-2.5-2.9c-1.1-0.8-1.7-1.2-1.7-1.3c0.3,0.7,0.9,1.5,1.8,2.6c1,1.2,1.8,1.8,2.3,1.8
			C118.4,80.8,118.4,80.7,118.4,80.7z M135.6,60.2c0-4.6-1.8-6.8-5.4-6.8c-2.1,0-3.8,0.9-5.1,2.6c-0.7,0.9-1.6,2.7-2.6,5.3
			c-0.4,0.9-0.8,1.8-1.1,2.7c-0.4,1.1-0.6,2-0.6,2.8c0,1.7,0.4,3.5,1.3,5.2c1,2.1,2.3,3.1,3.9,3.1c0.1,0,0.2-0.1,0.4-0.2
			C132.5,72.8,135.6,67.9,135.6,60.2z M144.4,62.7c0-0.8-0.1-1.6-0.3-2.3l0.1,0.9c0.1,1-0.2,2.6-0.7,4.7c-0.6,2.2-0.8,4.3-0.8,6.1
			c0,2-0.6,3.5-1.8,4.5c-0.7,0.5-1.4,1.1-2.1,1.6c-0.1,0.2-0.5,1.3-1.3,3.4c-0.3,1-0.9,1.7-1.6,2c-0.9,0.5-2.5,0.7-4.7,0.7
			c-1.3,0-2.9-0.2-4.8-0.6c-2.5-0.5-4.1-0.8-4.8-0.9c0.3,0.1,0.6,0.3,1.1,0.6c0.4,0.3,0.8,0.5,1,0.6c2.2,0.6,4.4,0.8,6.5,0.8
			c4.2,0,7.3-0.7,9.1-2.2c1.6-1.4,3-4,4.2-8c0.2-0.6,0.4-1.2,0.6-1.9s0.3-1.2,0.3-1.7c0-0.5-0.1-1.1-0.2-2c-0.1-0.9-0.2-1.5-0.2-2
			c0-0.5,0.1-1.3,0.2-2.3C144.3,64,144.4,63.2,144.4,62.7z M132,49.5c-0.1,0-1.1-0.4-2.9-1.2c-1.2-0.5-2.2-0.8-2.9-0.8
			c-1.3,0-2.4,0.5-3.2,1.4c-0.9,0.9-1.2,2-1.1,3.3l0.1,0.6C123.9,50.7,127.3,49.5,132,49.5z M128.2,45.5c-0.6-0.1-1-0.1-1.3-0.1
			c-1.6,0-2.9,0.5-3.6,1.5C125.2,46.1,126.8,45.6,128.2,45.5z M128.6,81.4c-0.6-0.2-1.5-0.3-2.7-0.5l0.9,0.9
			C127.4,81.6,128,81.5,128.6,81.4z M136.8,71.6c-0.9,1.8-2.2,3.4-3.9,4.6c-1,0.7-2.5,1.4-4.2,2.1c-1.4,0.6-2.2,1-2.3,1.3
			c1.5,0.7,2.9,1,4,1c1.7,0,2.8-0.3,3.4-0.9c0.4-0.4,0.7-1.1,0.8-2.1c0.1-1.3,0.4-2.2,0.7-2.7c0.3-0.6,0.6-1.1,1-1.6
			S136.8,72.1,136.8,71.6z M133.3,47.2c-1.1-0.8-2.1-1.2-2.9-1.2c-0.4,0-0.9,0.1-1.4,0.3s-1,0.4-1.5,0.6c0.4-0.1,0.9-0.2,1.3-0.2
			c0.5,0,1.3,0.1,2.3,0.2C132.1,47.1,132.8,47.2,133.3,47.2z M136.7,79.9c-1.1,0.9-2.5,1.6-4.2,2c-0.5,0.1-2.1,0.4-4.7,0.8
			c0.9,0.5,2,0.7,3.1,0.7c1.3,0,2.4-0.3,3.5-0.8C135.9,81.9,136.6,81,136.7,79.9z M142.7,61.2c0-8.7-2.9-13.5-8.8-14.5
			c0.4,0.5,1.4,1.6,3.1,3.3c1.3,1.4,2.2,2.5,2.8,3.5c1,1.7,1.7,3.5,2.1,5.3c0.2,1.1,0.4,3,0.7,5.6C142.6,63.8,142.7,62.7,142.7,61.2
			z"/>
		<path id="XMLID_199_" fill="#FFFFFF" d="M173.1,84.1l-0.1,1.5c-1.4,0-3.2,0-5.4,0.1c-2.7,0.1-4.5,0.1-5.4,0.1
			c-3.4,0-7.3-0.8-11.6-2.4c0.4-0.2,0.7-0.7,0.8-1.3c1.5-0.2,2.7-0.3,3.4-0.3l-0.1-1.7c-0.1-3,0.7-7,2.3-11.9
			c1.8-5.4,2.8-9.3,3-11.8c-1.3-0.5-3.3-0.6-6-0.4l0.9-1c-0.5-0.1-1.1-0.2-1.9-0.1c-1,0.1-1.6,0.2-1.9,0.2l-0.4-0.1
			c0.2-0.4,0.4-1,0.5-1.7c0.1-0.8,0.2-1.3,0.4-1.7c0.5-0.9,1.5-1.5,3.1-2c2.1-0.7,3.3-1.1,3.6-1.3c-0.5-0.2-1.1-0.3-1.8-0.4
			c-1-0.1-1.7-0.1-1.8-0.2c-0.6,0.7-1.4,1-2.6,1l-1.5-0.2L151,47l0.5,0.5c1-0.6,2.1-1.3,3.1-1.9c0.4-0.1,1.7-0.2,4-0.2
			c1.4,0,2.6-0.6,3.8-1.7c1.2-1.1,2.2-1.7,3.1-1.7c0.8,0,1.3,1,1.5,2.9c1,0,2.5,0.1,4.5,0.2c-0.1,1.7-1,4.9-2.7,9.6
			c-1.8,5.1-2.8,8.7-3.2,10.8c-0.9,5.6-1.3,9.7-1.3,12.2c0,1.1,0.5,1.8,1.5,2.2c0.2,0.1,1.2,0.2,2.9,0.5c1.1,0.2,1.7,0.5,1.9,1.1
			c-0.6-0.2-1.4-0.3-2.4-0.4c-0.8,0-1.7-0.1-2.5-0.1l0.2,1.6c2.9,0.6,4.7,0.8,5.2,0.8c0.6,0,1.3-0.1,1.9-0.2L173.1,84.1z
			 M159.8,52.3c0-0.3-0.2-0.8-0.5-1.6c-0.4,0.2-1.2,0.3-2.3,0.3c-1.3,0-2.2,0.1-2.7,0.3c-0.8,0.2-1.3,0.8-1.3,1.6
			c0,0.2,0,0.5,0.1,0.9c0.4,0,0.8,0.1,1.2,0.3c0.5-0.5,1.5-0.7,3.3-0.7C159.1,53.2,159.8,52.9,159.8,52.3z M169.9,84.7
			c-0.7-0.3-2.5-0.7-5.4-1.1c0-0.1,0-0.2,0.1-0.3c0-0.1,0-0.2,0-0.3c0-0.2,0-0.5-0.1-0.8c-0.1-0.3-0.1-0.6-0.1-0.7
			c-0.6,0.1-1.1,0.1-1.4,0.1c-0.5,0-1.1-0.1-2-0.3c-0.1,0.5-0.8,0.6-2.1,0.3c0.1,0.2,0.2,0.5,0.4,1h-0.5c-4.1,0-5.9,0-5.5,0.1
			c2.2,0.5,4.3,1,6.5,1.5c2.6,0.6,4.8,0.8,6.6,0.8C167.1,84.9,168.3,84.8,169.9,84.7z M165.5,44.5c0-0.4-0.1-0.7-0.4-0.9
			c-1.6,1.2-2.8,2-3.5,2.2c-0.8,0.3-2.1,0.4-4.1,0.4c-1.2,0-2.2,0.2-2.8,0.6h0.6c0.3,0,0.9,0,1.7-0.1c0.8-0.1,1.3-0.1,1.7-0.1
			c0.2,0,0.6,0,1.1,0.1c0.3,0.5,0.9,0.7,1.7,0.7c0.8,0,1.7-0.3,2.6-0.8C165,45.9,165.5,45.3,165.5,44.5z M161.3,48.4L161.3,48.4
			c-2.1,0.3-4.3,0.9-6.5,1.8h0.3c0.6,0,1.8-0.2,3.4-0.6C160.4,49,161.3,48.7,161.3,48.4z M158.2,81.3c-0.6-0.2-1-0.3-1.5-0.3
			c-0.7,0-1.1,0.3-1.5,0.8c0.2,0,0.6,0,1.1-0.1C157,81.6,157.6,81.5,158.2,81.3z M157,73.5c-0.8,1.4-1.2,3.1-1.2,5.3v0.3
			c0.6-0.1,1-0.9,1.1-2.5C156.9,75.6,157,74.5,157,73.5z M161.1,61.1c0-0.7-0.1-1.4-0.2-2c-0.9,2.5-2.2,6.4-4,11.5l0.5-0.8
			c1.3-1.8,2.2-3.2,2.6-4C160.7,64.3,161.1,62.8,161.1,61.1z M161.6,52.4c0-0.7-0.2-1.3-0.5-1.8c-0.1,0.9-0.2,2.3-0.4,4.2
			c0.2-0.3,0.4-0.7,0.6-1C161.5,53.4,161.6,53,161.6,52.4z M164.5,64.3c-0.9,1.5-1.3,3.5-1.3,6c0,1.7,0.2,3.4,0.5,4.8
			C164,71.6,164.3,67.9,164.5,64.3z M166.2,50.9v-0.3c0-0.3,0-0.9,0-1.6c0-0.7-0.1-1.2-0.1-1.6c-0.7,0.3-1.1,0.7-1.1,1
			c0,0.2,0.2,0.6,0.5,1.1C166,50.3,166.2,50.7,166.2,50.9z M170,46c-0.6,0.2-1,0.3-1.4,0.3c-0.4,0-0.8-0.1-1-0.4
			c-0.2,1.1-0.4,1.9-0.4,2.1c0,0.7,0.4,1.2,1.1,1.5c-0.7,1.3-1.2,2.7-1.5,4.2c-0.1,0.7-0.3,2.2-0.5,4.5C168.1,54.1,169.3,50,170,46z
			"/>
		<path id="XMLID_212_" fill="#FFFFFF" d="M211.5,61c0,0.8-0.2,1.7-0.7,2.9c-0.4,0.9-0.8,1.8-1.2,2.8c-0.2,0.7-0.5,2-0.8,4
			c-0.2,1.6-0.6,2.9-1.1,3.9c-1.3,2.4-3.5,4.4-6.5,6.2c-2.7,1.4-5.4,2.7-8.1,4.1c-1.1,0.6-2.4,0.8-4,0.8c-2.7,0-4.4-0.7-5-2.1
			c1.5-0.1,3.7-0.4,6.6-1c-0.5-0.2-1-0.3-1.5-0.3c-0.4,0-0.9,0-1.5,0c-0.8,0-1.3,0.1-1.5,0.1c-2,0-3.6-0.9-4.8-2.8
			c-1-1.6-1.5-3.4-1.7-5.6c0.8,0,1.5-0.2,2.2-0.6c0.9-0.5,1.2-1.1,1-1.9c3.2-0.2,4.5-0.4,4-0.4c0.1,1.2,0.9,2.1,2.1,2.8
			c1.1,0.6,2.3,0.9,3.6,0.9c2.2,0,3.8-0.7,5-2.1c0.9-1,1.6-2.7,2.2-5.1c-0.6,0.1-1.7,0.6-3.2,1.4c-1.3,0.8-2.9,1.1-4.6,1.1
			c-1.8,0-5-0.7-9.7-2.1c-1.7-0.5-2.8-1.5-3.2-2.8c-0.2-1.4-0.4-2.8-0.6-4.2c-0.3-1.9-1.1-3.6-2.5-4.9c0.9-0.8,1.6-2.5,2.2-5.2
			c0.6-2.7,1.5-4.6,2.8-5.7c2-1.8,5.3-2.7,9.9-2.7c5,0,9.9,1.5,14.5,4.4c1.4,0.8,2.2,2.2,2.6,4.2c0.5,2.6,0.9,4.2,1.3,4.8
			C210.8,58.2,211.5,59.9,211.5,61z M195.6,44c-1.3-0.8-2.7-1.3-4.3-1.3c-2.3,0-4.7,0.9-7.4,2.7c-2.7,1.8-4.3,3.8-5,5.9
			c0,0.1-0.1,1-0.3,2.6c-0.1,1-0.5,1.8-1.1,2.2c0.7,1.1,1.3,2.5,1.7,4.3c0.4,2,0.8,3.3,1,3.9c0.6,1.3,1.7,2.3,3.3,3
			c-0.9-1.4-1.8-2.9-2.7-4.3c-0.9-1.5-1.3-3.2-1.3-5.3c0-2.6,1.3-5.5,3.9-8.9c2.7-3.5,5.3-5.3,7.8-5.3
			C190.9,43.4,192.4,43.6,195.6,44z M181.4,56.1c0-0.6-0.1-1.1-0.3-1.7c-0.1,0.3-0.3,0.9-0.6,1.7c-0.3,0.8-0.5,1.5-0.5,2
			c0,0.6,0.2,1.3,0.5,1.9c0-0.4,0.1-1.1,0.4-1.9S181.4,56.6,181.4,56.1z M187.6,68.1c-0.5-0.3-1.5-1.3-3.1-3
			c-1.3-1.4-2.3-2.1-3.1-2.3c0.6,1.2,1.4,2.3,2.6,3.4C185.2,67.3,186.4,68,187.6,68.1z M195.1,77.7c-2.2,0.8-4.5,1.2-6.7,1.2
			c-1.1,0-2.2-0.2-3.2-0.6c-1.3-0.5-1.9-1.2-1.9-2.1c0-0.8,0.2-1.4,0.7-1.7l-1.9,0.1c-0.2,4.4,1.4,6.6,4.9,6.6c1.8,0,2.8-0.6,3-1.8
			c1.3,0,2.3-0.1,2.8-0.3C193.8,78.9,194.6,78.4,195.1,77.7z M191.7,45c-0.5-0.2-1-0.4-1.6-0.4c-2,0-3.9,1.2-5.7,3.7
			C186.8,46.6,189.3,45.5,191.7,45z M194.9,48c-0.3,0-1-0.2-2.1-0.4c-0.9-0.1-1.6-0.2-2.2-0.2c-1.3,0-2.2,0.3-2.8,0.9
			c-0.2,0.3-0.7,1.1-1.3,2.6c-0.5,1.3-0.8,2.1-0.8,2.5c0,0.1,0,0.4,0.1,0.7c1.5-2.4,2.6-3.9,3.4-4.6C190.5,48.5,192.4,48,194.9,48z
			 M208.4,68.8c0-0.7-0.1-1.7-0.3-2.9v0.7c0,4.7-2.5,8.6-7.4,11.9c-3.6,2.4-8.2,4.2-13.8,5.6c1,0.4,1.9,0.6,2.8,0.6
			c0.9,0,1.8-0.3,2.8-0.9c0.8-0.5,1.7-1.1,2.5-1.6c2-1.1,4-2.1,5.9-3.2c2.4-1.3,4.1-2.6,5.2-3.9C207.7,73.4,208.4,71.3,208.4,68.8z
			 M193.6,77.7c0,0-0.1,0-0.3,0c-0.1,0-0.2,0.1-0.3,0.1c-0.6,0-1.5-0.1-2.7-0.3s-2.1-0.3-2.7-0.3h-0.4c0.9,0.7,1.8,1,2.9,1
			C190.4,78.2,191.6,78,193.6,77.7z M200.8,57.2c0-1.4-0.6-2.6-1.8-3.6c-1.2-1-2.5-1.5-3.9-1.5c-1.9,0-3.7,0.7-5.2,2.1
			c-1.6,1.4-2.3,3-2.3,4.9c0,1.4,0.6,2.5,1.7,3.5s2.4,1.5,3.8,1.5c1.9,0,3.6-0.7,5.3-2.1C200,60.7,200.8,59.1,200.8,57.2z
			 M198.2,67.5c-1.3,0.3-4.1,0.6-8.7,0.8c1,0.4,2.3,0.6,3.6,0.6C195.1,68.9,196.8,68.4,198.2,67.5z M202.9,75.4
			c-0.9,1.1-2.8,2.4-5.8,3.6c-1.1,0.5-3.3,1.3-6.7,2.4l0.6,0.1C196.8,80.5,200.7,78.4,202.9,75.4z M208.1,57.3c0-4-1.2-7-3.7-9.2
			c-2.3-2-5.4-3-9.4-3.2c1.1,0.7,2.3,1.3,3.8,1.8s2.5,1,3.2,1.4c1.1,0.8,2.4,2.2,3.7,4.1c0.9,1.4,1.5,3,1.7,5c0.3,3.2,0.5,5,0.6,5.2
			c0-0.4,0-1.2,0.1-2.6C208.1,58.8,208.1,57.9,208.1,57.3z M197.3,75.4c-0.5,0.2-1.1,0.6-1.9,1.2c0.7-0.3,1-0.4,1-0.5
			C196.8,75.9,197.1,75.6,197.3,75.4z M202.8,59.4c0-0.1,0-0.2,0-0.4c0-0.2-0.1-0.3-0.1-0.4c-0.3,1.1-1.3,2.3-2.9,3.4
			c-1.3,0.9-2.6,1.7-3.9,2.3c1.7-0.2,3.1-0.7,4.4-1.5C202,62,202.8,60.8,202.8,59.4z M207.6,50.1c-0.4-1.1-1.1-2-2.2-2.6
			c-0.3-0.1-0.7-0.3-1-0.5c-0.1-0.1-0.2-0.2-0.3-0.3c0.3,0.4,0.7,0.9,1.1,1.4C206,48.9,206.8,49.6,207.6,50.1z M206.6,66.7l-0.1-0.3
			c-1.3,1.5-2,3.8-2.1,6.9C206,69.7,206.7,67.5,206.6,66.7z M210.1,61.5c0-0.8-0.2-1.9-0.6-3.3c0.1,0.5,0.2,1,0.2,1.6
			c0,0.7-0.1,1.6-0.4,2.7c-0.4,1.5-0.6,2.4-0.7,2.7C209.6,64.1,210.1,62.9,210.1,61.5z"/>
	</g>
</g>
<g id="silkscreen_copy" display="none">
	<text transform="matrix(1 0 0 1 12.1859 33.2986)" display="inline" fill="#FFFFFF" font-family="'Frazzle'" font-size="31.02px">B</text>
	<text transform="matrix(1 0 0 1 42.5545 33.2986)" display="inline" fill="#FFFFFF" font-family="'Frazzle'" font-size="31.02px">u</text>
	<text transform="matrix(1 0 0 1 67.5872 33.2986)" display="inline" fill="#FFFFFF" font-family="'Frazzle'" font-size="31.02px">z</text>
	<text transform="matrix(1 0 0 1 89.7977 33.2986)" display="inline" fill="#FFFFFF" font-family="'Frazzle'" font-size="31.02px">z</text>
	<text transform="matrix(1 0 0 1 112.0076 33.2986)" display="inline" fill="#FFFFFF" font-family="'Frazzle'" font-size="31.02px">z</text>
	<text transform="matrix(1 0 0 1 134.2181 33.2986)" display="inline" fill="#FFFFFF" font-family="'Frazzle'" font-size="31.02px">M</text>
	<text transform="matrix(1 0 0 1 169.9837 33.2986)" display="inline" fill="#FFFFFF" font-family="'Frazzle'" font-size="31.02px">a</text>
	<text transform="matrix(1 0 0 1 192.1937 33.2986)" display="inline" fill="#FFFFFF" font-family="'Frazzle'" font-size="31.02px">s</text>
	<text transform="matrix(1 0 0 1 70.8196 84.1189)" display="inline" fill="#FFFFFF" font-family="'Frazzle'" font-size="52.14px">2</text>
	<text transform="matrix(1 0 0 1 110.1326 84.1189)" display="inline" fill="#FFFFFF" font-family="'Frazzle'" font-size="52.14px">0</text>
	<text transform="matrix(1 0 0 1 142.7718 84.1189)" display="inline" fill="#FFFFFF" font-family="'Frazzle'" font-size="52.14px">1</text>
	<text transform="matrix(1 0 0 1 175.7757 84.1189)" display="inline" fill="#FFFFFF" font-family="'Frazzle'" font-size="52.14px">9</text>
</g>
</svg>
